<svg width="137" height="164" viewBox="0 0 137 164" fill="none" xmlns="http://www.w3.org/2000/svg">
<g clip-path="url(#clip0_59_152)">
<g clip-path="url(#clip1_59_152)">
<path d="M55.1138 29.262C45.1212 27.2979 20.2948 23.4234 19.217 23.6507C17.8283 23.9616 17.3906 25.8783 18.5248 26.7438C19.1919 27.2565 24.4303 28.3261 34.3496 29.9974C37.5487 30.5207 45.417 31.9156 51.6008 33.0261C60.2735 34.591 61.0772 34.5938 61.7184 33.0505C62.4004 31.4118 60.5053 30.3272 55.1138 29.262Z" fill="black"/>
<path d="M62.6376 35.7406C61.9514 36.1487 61.5973 36.9039 61.1424 38.9981C59.3436 47.4108 52.8805 59.5221 47.7344 64.1691C40.0933 71.0468 28.1648 68.0934 21.5153 57.675C17.2394 50.9738 15.8434 41.5684 17.5438 30.974C17.9729 28.2961 17.3972 27.2158 15.7374 27.5756C13.849 27.9955 12.2012 35.6746 12.4446 42.9801C13.2835 68.7962 39.2573 82.2675 53.7548 64.4162C60.3936 56.2378 66.9839 38.8936 64.509 36.1206C64.0799 35.6262 63.1584 35.44 62.6376 35.7406Z" fill="black"/>
<path d="M39.9811 37.3045C23.5585 33.2228 18.2695 34.9476 20.8923 43.513C24.0918 53.9481 31.1928 62.0589 37.5086 62.5066C41.9631 62.8198 47.3443 59.8447 51.8962 54.583C59.2446 46.0787 55.9221 41.2571 39.9811 37.3045Z" fill="black"/>
<path d="M39.9357 74.6939C39.1334 75.0254 38.8051 75.5142 38.2431 77.2154C36.0924 83.7124 25.0502 79.6608 25.5045 72.5271C25.6873 69.6921 22.5995 69.3201 21.8557 72.0959C19.4803 80.9612 33.9223 89.0355 40.526 82.5174C43.6615 79.4262 43.2115 73.4011 39.9357 74.6939Z" fill="black"/>
<path d="M27.6123 85.9609C27.0839 86.2899 27.0839 86.2899 26.3685 89.0733C25.6189 91.984 23.8476 99.6146 23.5319 101.246C23.1651 103.181 20.5506 113.788 19.0479 119.397C16.0842 130.457 15.9713 132.521 18.2514 133.132C20.5455 133.747 21.4796 131.281 24.9078 115.654C28.7441 98.1645 30.457 87.467 29.6225 86.3326C29.1633 85.7239 28.2805 85.5632 27.6123 85.9609Z" fill="black"/>
<path d="M5.62613 124.453C-7.23377 124.013 -12.2296 131.781 -2.9521 137.773C4.78448 142.775 24.166 147.483 33.7709 146.702C44.2628 145.84 44.3263 137.616 33.8917 132.543C26.9175 129.171 25.1397 132.52 31.7392 136.611C36.8185 139.747 37.6942 141.181 34.8545 141.695C23.7636 143.717 -7.98992 134.085 -2.42944 130.384C-0.789639 129.306 2.76071 128.405 6.29589 128.184C9.10497 128.01 9.78343 127.631 9.78231 126.219C9.77224 125.124 8.42724 124.535 5.62613 124.453Z" fill="black"/>
<path d="M11.4389 130.687C6.61013 132.961 15.5505 140.608 21.3822 139.18C25.2139 138.249 24.4552 134.509 20.5173 134.987C18.0729 135.273 14.7766 133.752 14.0449 132.008C13.5911 130.869 12.3603 130.251 11.4389 130.687Z" fill="black"/>
</g>
</g>
<defs>
<clipPath id="clip0_59_152">
<rect width="137" height="164" fill="white"/>
</clipPath>
<clipPath id="clip1_59_152">
<rect width="56.2694" height="122.832" fill="white" transform="translate(16.7913 18.4375) rotate(15)"/>
</clipPath>
</defs>
</svg>
