<svg width="137" height="164" viewBox="0 0 137 164" fill="none" xmlns="http://www.w3.org/2000/svg">
<g clip-path="url(#clip0_59_195)">
<g clip-path="url(#clip1_59_195)">
<path d="M111.065 17.8816C110.296 18.6956 110.139 24.0651 110.552 35.1613C110.837 42.7445 111.036 43.3728 113.13 43.3728C115.167 43.3728 115.423 42.0876 114.854 34.3331C114.54 30.0202 114.213 25.1077 113.999 21.5232C113.757 17.5817 112.646 16.1964 111.065 17.8816Z" fill="black"/>
<path d="M111.69 45.8166C76.4646 48.3443 54.8708 90.7586 74.0859 119.634C92.3324 147.039 133.753 142.984 150.661 112.137C167.939 80.6047 146.046 43.3317 111.69 45.8166ZM107.103 51.6146C106.647 55.2134 106.647 61.1685 107.089 65.8097C107.174 66.6095 107.174 66.6095 104.354 68.4089C102.802 69.3943 100.537 70.8794 99.3261 71.722C96.691 73.5214 96.9474 73.9498 96.8477 67.3664C96.7907 62.925 96.9331 59.6119 97.3747 55.6703C97.5741 53.7282 98.97 52.9428 105.024 51.3861C107.274 50.8006 107.203 50.8006 107.103 51.6146ZM92.9591 58.8121C92.6884 61.4112 92.603 70.7081 92.8166 74.364C92.9448 76.2919 92.9448 76.2919 91.6771 77.2202C89.2414 79.0195 84.7261 82.6897 81.0654 85.8599C79.6838 87.0457 79.7407 87.1453 79.8689 82.8896C80.1538 73.6356 81.3076 66.6095 82.7747 64.9672C85.4525 62.0111 88.2016 59.6405 91.5489 57.4126C93.4291 56.1559 93.2724 55.9988 92.9591 58.8121ZM138.112 58.1838C140.121 59.8261 142.428 62.1967 143.895 64.1103C144.052 64.3246 143.867 64.4531 142.029 65.3814C140.904 65.9383 138.782 67.0808 137.315 67.8947C135.833 68.7231 134.594 69.3657 134.551 69.3228C134.224 68.9801 131.361 59.6119 131.546 59.4405C131.66 59.3262 136.702 57.3841 136.916 57.3698C137.03 57.3698 137.571 57.7411 138.112 58.1838ZM127.671 61.8254C128.298 64.2674 128.968 66.5095 129.751 68.7801C130.264 70.2368 130.691 71.4936 130.705 71.5506C130.72 71.6078 129.139 72.6788 127.173 73.907C123.484 76.249 120.065 78.5054 116.96 80.6761C115.977 81.3616 115.094 81.9328 115.023 81.9328C114.61 81.9328 111.861 71.1936 111.861 69.5799C111.861 69.1943 112.103 69.0372 116.063 66.8665C119.553 64.9529 127.031 61.2399 127.415 61.2256C127.472 61.2256 127.586 61.4969 127.671 61.8254ZM147.641 70.0083C150.348 75.2636 150.391 75.9777 147.983 77.3629C145.547 78.7625 142.799 80.4333 141.616 81.2331C140.833 81.7614 140.833 81.7614 140.633 81.4615C139.223 79.2338 136.731 74.5639 136.859 74.364C136.944 74.2069 142.072 71.365 144.907 69.8798C146.388 69.1087 147.001 68.8516 147.086 68.9801C147.143 69.0801 147.399 69.537 147.641 70.0083ZM108.143 73.6214C108.585 76.0491 109.852 81.0331 110.565 83.1324C110.892 84.0747 111.134 84.846 111.106 84.8747C111.092 84.8888 110.28 85.503 109.297 86.2316C107.274 87.7308 102.616 91.3722 101.505 92.3153C100.765 92.9436 100.765 92.9436 100.466 91.9437C99.2406 87.7883 97.4032 78.8196 97.688 78.3626C97.859 78.0913 107.402 71.822 107.659 71.8077C107.744 71.7934 107.958 72.6074 108.143 73.6214ZM141.018 89.9017C142.4 91.7726 144.636 94.4568 146.715 96.6993C148.425 98.5554 148.425 98.5554 146.417 99.9123C142.443 102.583 137.357 106.324 133.027 109.766C131.332 111.109 131.332 111.109 130.99 110.694C127.899 106.896 123.726 100.655 124.096 100.355C130.52 95.1139 139.266 88.5449 139.85 88.5161C139.935 88.5161 140.448 89.1444 141.018 89.9017ZM113.713 91.3154C114.439 93.0004 115.949 96.0282 117.045 98.0414C117.843 99.4985 117.843 99.4985 116.803 100.469C114.638 102.483 112.972 104.082 110.265 106.767C108.713 108.295 107.417 109.523 107.388 109.48C107.274 109.366 105.636 105.896 104.81 103.997C103.642 101.298 102.431 98.0414 102.559 97.9271C103.784 96.8704 112.844 89.9445 113.014 89.9298C113.057 89.9298 113.371 90.5588 113.713 91.3154ZM76.5358 96.4139C76.5358 98.1845 78.8434 106.739 80.3674 110.58C80.6096 111.237 77.946 114.793 76.8207 115.321C76.1797 115.607 72.9036 107.267 72.1344 103.369C71.5504 100.455 71.351 100.998 73.9292 98.3703C76.2224 96.0282 76.5358 95.7996 76.5358 96.4139ZM99.1837 101.954C99.8104 103.683 101.634 107.881 102.901 110.466C104.183 113.08 104.183 113.08 102.36 115.107C98.7421 119.12 94.5116 124.161 93.6855 125.418C93.3579 125.932 93.3579 125.932 92.1614 124.19C90.2385 121.419 85.7944 113.336 85.7944 112.622C85.7944 112.522 89.2984 109.252 91.9478 106.882C93.7852 105.225 98.6709 101.069 98.7706 101.069C98.8276 101.069 98.9985 101.469 99.1837 101.954ZM148.183 106.296C146.374 110.523 143.568 114.936 140.306 118.677C139.309 119.82 139.523 119.848 138.041 118.42C134.11 114.636 134.138 115.079 137.813 112.322C142.699 108.652 148.724 104.411 148.852 104.554C148.881 104.582 148.581 105.368 148.183 106.296ZM83.3444 117.52C84.84 120.677 87.404 125.004 89.2984 127.603C89.9678 128.517 89.9678 128.517 88.985 127.903C85.4668 125.69 82.6038 123.162 79.812 119.806C79.1852 119.048 79.1852 119.048 80.809 117.421C81.7064 116.521 82.4613 115.779 82.4756 115.779C82.4898 115.779 82.8744 116.564 83.3444 117.52ZM106.975 117.877C108.841 120.862 110.678 123.433 112.445 125.561C113.485 126.818 113.784 126.417 107.431 132.33C106.149 133.515 105.422 133.558 100.864 132.629C98.913 132.23 96.0928 130.159 96.05 129.088C96.05 128.745 106.106 117.064 106.42 117.064C106.434 117.064 106.69 117.435 106.975 117.877ZM133.483 120.348C136.061 122.919 136.061 122.919 134.679 124.004C131.517 126.518 124.937 130.345 123.769 130.345C123.569 130.345 122.515 129.445 120.877 127.903C119.723 126.803 119.424 127.16 126.105 121.619C130.193 118.22 130.734 117.792 130.819 117.778C130.862 117.778 132.059 118.935 133.483 120.348Z" fill="black"/>
<path d="M58.0196 115.108C51.852 118.206 48.8323 120.934 49.6442 122.705C50.4561 124.49 54.7008 122.463 60.4696 117.521C63.6032 114.85 61.8798 113.165 58.0196 115.108Z" fill="black"/>
<path d="M69.2017 125.818C64.3302 128.389 61.6382 131.616 63.1908 133.016C64.4157 134.144 67.4782 132.659 71.5234 128.989C74.2868 126.475 72.5205 124.061 69.2017 125.818Z" fill="black"/>
<path d="M83.4029 136.485C81.8076 136.856 78.8876 142.268 79.1867 144.296C79.4858 146.267 81.5939 146.382 83.0325 144.496C85.4825 141.297 86.3799 136.485 84.5139 136.485C84.3715 136.485 84.1721 136.456 84.0581 136.428C83.9584 136.399 83.6593 136.428 83.4029 136.485Z" fill="black"/>
</g>
</g>
<defs>
<clipPath id="clip0_59_195">
<rect width="137" height="164" fill="white"/>
</clipPath>
<clipPath id="clip1_59_195">
<rect width="124" height="129" fill="white" transform="translate(49 17)"/>
</clipPath>
</defs>
</svg>
