<svg width="114" height="114" viewBox="0 0 114 114" fill="none" xmlns="http://www.w3.org/2000/svg">
<g clip-path="url(#clip0_13_2822)">
<path d="M52.9467 4.29998C52.5971 4.61469 52.0957 6.05336 52.1801 6.50295C52.3099 7.18294 53.206 7.22229 53.4709 6.56476C54.2092 4.73271 53.9104 3.42891 52.9467 4.29998Z" fill="#05667F"/>
<path d="M52.1584 10.0884C51.4933 10.6448 51.6511 12.8309 52.3668 12.9546C52.987 13.0557 53.173 12.7522 53.2067 11.5777C53.2463 10.1671 52.8066 9.54332 52.1584 10.0884Z" fill="#05667F"/>
<path d="M52.6596 15.7434C52.4454 15.9569 52.4567 15.8333 52.4567 17.4237C52.4567 18.1487 52.4341 19.2389 52.4061 19.8402C52.3383 21.3407 52.423 21.5992 52.964 21.5992C53.4262 21.5992 53.4431 21.5767 53.7644 19.8964C54.3224 16.991 53.7135 14.6925 52.6596 15.7434Z" fill="#05667F"/>
<path d="M52.8855 22.3444C52.4626 22.6423 52.4908 24.3676 52.9248 24.8003C53.4321 25.3061 54.0072 24.8453 54.0072 23.9405C54.0072 22.5524 53.545 21.8892 52.8855 22.3444Z" fill="#05667F"/>
<path d="M52.8345 26.6333C52.5359 26.9312 51.9553 28.9038 51.8877 29.8423C51.8031 30.9719 52.2201 31.5958 53.1163 31.6799C54.9539 31.8485 56.1318 30.0221 55.3032 28.28C54.9764 27.5943 54.1873 27.437 53.8942 28.0046C53.7871 28.2069 53.7758 28.2181 53.804 28.072C54.0633 26.7739 53.5165 25.959 52.8345 26.6333ZM53.9507 29.1342C54.0971 29.5613 54.0127 29.9547 53.7251 30.1457C53.3925 30.3648 53.3814 30.2638 53.5956 29.1005C53.7534 28.28 53.7534 28.28 53.8209 28.6228C53.8605 28.8138 53.9167 29.0443 53.9507 29.1342Z" fill="#05667F"/>
<path d="M45.7825 27.6216C43.6576 28.0992 42.7163 31.0384 44.1818 32.6008C45.3768 33.8707 47.3495 33.0448 48.2288 30.9092C48.409 30.4595 48.409 30.4595 48.8205 30.9484C50.2577 32.6626 51.1765 34.7418 51.8305 37.7485C51.96 38.3553 51.96 38.3553 51.4472 37.8497C48.0821 34.5172 43.652 39.7827 43.4265 47.3753C43.1954 55.3271 47.8737 57.3222 48.6514 49.6063C48.9672 46.5323 48.2343 44.1156 46.504 42.5198C46.098 42.1431 46.0925 42.1826 46.7124 40.9687C48.4372 37.6022 50.2748 37.8608 51.6614 41.671C52.7604 44.7003 52.9915 48.5216 52.3375 52.9951C52.0727 54.8103 51.8584 55.906 50.737 61.0314C49.542 66.5108 49.3054 71.9789 50.2297 72.861C50.5679 73.1814 51.2836 72.9847 51.3063 72.5633C51.3063 72.5125 51.3174 71.3773 51.3287 70.0511C51.3343 68.7192 51.3625 67.5221 51.3794 67.3817C51.4021 67.2412 51.4414 66.8985 51.4751 66.6231C51.6387 65.1394 51.9318 63.5546 52.6815 60.1321C53.6792 55.5746 54.0905 53.2479 54.2709 51.1124C54.316 50.6066 54.316 50.6066 54.502 51.6182C55.6688 57.8561 55.3982 62.3634 53.403 69.8433C52.9577 71.5067 52.9859 71.8944 53.5494 72.0067C54.2485 72.1474 54.5922 71.5009 55.4715 68.4214C57.3595 61.79 57.4442 57.4626 55.8435 49.3422C55.6124 48.1507 55.3193 46.6222 55.1953 45.942C55.0713 45.2621 54.8289 43.9191 54.6542 42.9635C54.2034 40.5189 54.2089 40.7833 54.6205 40.6989C54.812 40.6594 55.246 40.5303 55.59 40.4122C56.2154 40.1986 56.2154 40.1986 56.1817 40.3617C55.9168 41.6823 56.0012 43.3289 56.5143 46.6727C56.8185 48.6791 56.9652 49.8085 57.0778 51.0842C57.2807 53.411 57.4387 54.9789 57.5344 55.6925C57.5796 56.0465 57.7542 57.1481 57.9233 58.137C58.7013 62.7229 58.9379 66.9153 58.6221 70.422C58.515 71.6248 58.8814 72.1135 59.5354 71.6472C60.1498 71.2087 60.6062 65.6959 60.2738 62.633C60.1609 61.6045 59.9976 60.4751 59.7269 58.8622C59.3887 56.8671 59.231 55.7488 58.9943 53.6974C58.7519 51.5845 58.6954 51.1573 58.3462 48.8645C57.0836 40.5865 57.5118 38.1698 60.2624 38.0575C62.3027 37.9734 63.5484 39.3387 63.943 42.1037C63.9768 42.3173 63.9768 42.3173 63.7344 42.3173C60.8317 42.3173 59.5692 46.375 62.1056 47.5607C66.0171 49.3814 66.9021 39.8167 63.058 37.3158C61.9927 36.6246 59.8454 36.3941 58.9492 36.8773C58.453 37.1414 59.71 34.2305 60.6006 33.0503C61.8181 31.4374 64.0784 30.246 65.4422 30.4989C66.0793 30.6225 66.7103 31.0497 66.4906 31.2183C65.1829 32.2073 64.5347 33.3875 64.6194 34.6463C64.7996 37.4731 68.0969 37.3045 68.7733 34.4328C70.0358 29.0434 64.4276 26.8854 60.0313 31.061C59.6198 31.4542 59.5916 31.4711 59.3267 31.4711C59.1634 31.4711 58.8532 31.5442 58.5715 31.6455C56.8129 32.2749 55.4264 32.5332 53.2959 32.6289C52.0502 32.6849 52.0444 32.6794 51.7909 32.1736C50.2973 29.1614 47.6933 27.1945 45.7825 27.6216ZM57.9515 34.0956C57.8389 34.3709 57.726 34.635 57.7091 34.6858C57.6867 34.7531 57.6133 34.7868 57.5007 34.7868C57.4047 34.7868 57.0158 34.8881 56.6383 35.0059C54.0343 35.8489 53.2281 35.8097 52.8957 34.8205C52.6082 33.9496 52.5293 34.0451 53.4874 34.1237C54.8458 34.236 57.3371 33.9606 58.1599 33.6124C58.1599 33.6066 58.07 33.826 57.9515 34.0956ZM57.0836 37.0123C57.0665 37.0628 57.0496 37.1304 57.0496 37.164C57.0496 37.4058 53.9892 39.1928 53.9214 38.9905C53.8594 38.7882 53.5608 37.2372 53.5777 37.2145C53.5945 37.2032 53.7412 37.2203 53.9045 37.2595C54.6091 37.4113 55.9619 37.3045 56.7172 37.0404C57.0947 36.9055 57.1285 36.9 57.0836 37.0123Z" fill="#05667F"/>
<path d="M83.3052 33.0677C82.4146 33.3936 80.904 35.3323 80.5827 36.5575C80.1263 38.3053 81.4733 41.1713 82.5444 40.7273C82.9219 40.5645 82.9387 40.2386 82.595 39.6147C81.8397 38.2435 81.9806 36.861 83.0065 35.5854C83.4518 35.0401 83.4236 35.0456 83.6602 35.4168C83.7673 35.5796 84.0942 36.018 84.3931 36.3889C85.757 38.086 85.853 38.2995 85.5992 39.0134C85.1652 40.216 86.6476 40.5476 87.2282 39.3843C87.6566 38.5244 87.3635 37.6759 86.0951 36.1248C85.2103 35.0456 84.9228 34.6129 84.6411 33.9275C84.3142 33.1182 83.8971 32.8483 83.3052 33.0677Z" fill="#05667F"/>
<path d="M25.1091 34.2768C24.3933 34.7153 23.0011 37.188 22.787 38.4074C22.5615 39.6717 23.1589 41.3914 23.841 41.4309C24.63 41.4701 24.8668 40.9924 24.4835 40.127C24.1059 39.2727 24.3482 38.2106 25.2388 36.8C25.6164 36.2045 25.4868 36.1874 26.2646 36.9294C27.437 38.042 27.6681 38.4468 27.6004 39.2278C27.5046 40.2843 27.5553 40.5092 27.9386 40.6328C28.7672 40.9024 29.4435 39.7675 29.1899 38.531C29.0039 37.6262 28.5417 36.9518 27.4257 35.957C26.7099 35.3107 26.6761 35.2771 26.4111 34.7602C26.1237 34.1926 25.5826 33.9959 25.1091 34.2768Z" fill="#05667F"/>
<path d="M38.4222 38.8614C38.1404 38.9626 38.1179 38.9963 37.6444 39.8225C37.2104 40.5868 36.7764 41.1881 35.8746 42.3007C34.3133 44.2058 34.1893 45.9368 35.5307 46.9989C36.4438 47.7296 37.154 46.8471 36.4551 45.8469C35.9253 45.0883 36.0944 44.5935 37.4077 43.0201C37.6951 42.6774 38.0728 42.2052 38.2475 41.9635C38.5744 41.5195 38.5744 41.5195 38.8449 42.048C38.9915 42.3344 39.2508 42.8402 39.4255 43.1774C39.8989 44.0822 39.9666 44.487 39.8257 45.476C39.7862 45.7682 39.9497 46.2064 40.13 46.2795C40.7051 46.5213 41.1841 46.319 41.4432 45.7288C41.7985 44.9028 41.5785 44.0262 40.5922 42.3233C39.882 41.0868 39.7186 40.6823 39.5495 39.738C39.4029 38.9121 39.0535 38.6367 38.4222 38.8614Z" fill="#05667F"/>
<path d="M25.4309 39.339C25.2337 39.5468 25.2111 39.6649 25.166 40.7496C25.1322 41.6431 25.1322 41.6431 24.8955 41.7836C23.7006 42.4803 23.5991 43.2615 23.5991 51.8149C23.6047 57.8506 23.6329 58.9803 23.8189 60.1434C23.864 60.402 23.8922 60.6155 23.8865 60.6155C23.8865 60.6211 23.616 60.6887 23.2891 60.7728C21.2092 61.2899 20.9612 62.2679 22.1449 65.2461C22.7311 66.7186 23.5258 67.7078 24.6587 68.3596C24.9237 68.5169 24.9237 68.5169 24.9237 68.8373C24.9237 71.2763 26.5807 76.1712 28.3055 78.8126C30.7404 82.5383 32.8766 83.6118 39.2401 84.2975C41.9569 84.5897 43.5294 84.8706 44.6229 85.2528C45.8854 85.6968 46.37 85.6686 46.5112 85.1405C46.8491 83.8929 44.8313 83.1509 39.4656 82.5552C34.8888 82.0494 33.4459 81.5885 31.7099 80.0938C29.647 78.3123 27.4769 73.9963 26.5357 69.7926C26.3496 68.9609 26.3384 69.0227 26.6597 69.0734C27.2853 69.1744 28.3562 69.1071 28.9311 68.9272C28.9931 68.9048 29.0382 68.9159 29.0382 68.9554C29.0382 69.2026 30.1768 71.9002 30.8249 73.1982C33.6995 78.9249 36.4952 81.1727 41.4947 81.7685C43.0955 81.9597 43.6872 82.0494 44.3129 82.1901C45.1471 82.3811 45.5924 82.2406 45.6881 81.7571C45.8459 80.9594 45.0004 80.5096 42.8475 80.2455C40.2659 79.931 39.5783 79.796 38.5919 79.4025C36.0274 78.3741 33.8461 75.7946 31.383 70.866C30.0584 68.2078 30.1035 68.3654 30.5488 67.9156C32.2848 66.1454 32.3412 61.5372 30.6277 61.5372C30.0978 61.5372 29.9231 62.0485 30.0753 63.1388C30.453 65.8927 29.5173 67.4379 27.4657 67.4379C25.9269 67.4379 24.6869 66.6344 23.9486 65.1564C23.5991 64.4652 23.0411 62.7229 23.1313 62.6274C23.244 62.5151 26.4567 61.8857 28.9199 61.4922C30.1486 61.2955 30.4755 60.1324 29.3031 60.1324C29.0551 60.1324 29.0495 60.1266 29.1002 59.7839C29.4271 57.4348 29.0777 47.5552 28.5535 44.4249C28.2829 42.8065 27.7869 41.9185 26.9809 41.615C26.7273 41.5137 26.7273 41.5137 26.7273 41.1597C26.7273 40.7496 26.592 39.7662 26.5018 39.53C26.344 39.1254 25.7353 39.0131 25.4309 39.339ZM26.5131 43.0874C26.9697 43.4977 27.1669 44.7563 27.3755 48.6115C27.5446 51.7586 27.5784 53.1469 27.5615 55.8332C27.5558 57.3448 27.5446 58.9353 27.5446 59.3567C27.5446 60.1266 27.5446 60.1266 27.2064 60.1602C26.5244 60.2334 25.4591 60.3628 25.3915 60.3851C25.2337 60.4356 25.1547 45.1443 25.3069 44.0877C25.4535 43.0816 26.0002 42.6266 26.5131 43.0874Z" fill="#05667F"/>
<path d="M83.5072 39.5371C83.1804 39.863 83.1239 40.1102 83.1015 41.3186C83.0788 42.4312 83.0788 42.4312 82.8477 42.4875C81.0103 42.9483 80.6777 44.5725 81.0499 51.3107C81.2132 54.233 81.5741 58.6894 81.7711 60.201C81.8782 61.0104 81.9629 60.9204 80.9879 60.9991C79.7705 61.0948 79.3307 61.5948 79.9675 62.1511C80.2833 62.4265 82.2278 62.5052 84.3865 62.3255C85.7844 62.2074 87.7347 62.2129 87.8587 62.3366C88.0953 62.567 87.8756 64.8206 87.5036 66.0063C86.3537 69.665 81.9292 68.4903 81.0048 64.2811C80.8188 63.4381 80.565 63.1122 80.0973 63.1122C78.925 63.1122 79.1447 65.8098 80.4637 67.5968C80.7906 68.035 80.8075 67.9172 80.2495 68.9793C75.4304 78.2182 72.5106 80.7359 65.4765 81.7138C63.9209 81.9329 63.9997 81.916 63.808 82.1073C62.5061 83.3998 66.7953 83.439 70.4927 82.1633C73.063 81.2753 75.295 79.6064 77.2058 77.1337C78.3219 75.6836 80.7117 71.7666 81.6812 69.7887C82.0363 69.0693 82.2505 69.0185 82.8253 69.5188C82.9211 69.603 81.2697 72.7332 80.2888 74.3574C78.8065 76.7907 76.2645 80.1964 74.8893 81.5789C73.3223 83.1581 72.5333 83.3435 66.6262 83.5066C64.4675 83.5684 64.2533 83.6412 64.4224 84.2707C64.5463 84.7315 64.9634 84.7765 68.83 84.7315C74.1113 84.6755 74.9344 84.237 78.5472 79.5556C80.9483 76.4425 84.2738 70.9126 84.2738 70.0301C84.2738 70.0078 84.6234 69.9683 85.0515 69.9572C87.9038 69.856 89.3014 67.7936 89.6003 63.2527C89.7185 61.3699 88.9973 60.5327 87.2498 60.5272C86.7539 60.5272 86.7539 60.5272 86.7539 54.7498C86.7539 44.1285 86.5341 42.5661 85.0291 42.3415C84.7811 42.3076 84.7811 42.3076 84.7753 41.594C84.7643 40.2452 84.7078 39.9529 84.4034 39.6157C84.1499 39.3348 83.7497 39.2954 83.5072 39.5371ZM84.612 44.0385C84.7811 44.4712 84.8824 47.5116 84.9502 53.7834C85.0009 58.4196 85.0405 60.2292 85.0911 60.5046C85.1135 60.6169 84.257 60.7518 83.5637 60.7518C83.4508 60.7518 83.4397 60.7126 83.4059 60.1169C83.3832 59.7741 83.3157 58.9198 83.2537 58.2231C82.7351 52.1479 82.4985 45.4828 82.7747 44.623C82.7857 44.578 82.814 44.4712 82.8308 44.3871C82.8704 44.2127 83.1353 44.1117 83.9019 43.9767C84.4994 43.8644 84.5501 43.8699 84.612 44.0385Z" fill="#05667F"/>
<path d="M69.6085 40.9756C69.5241 41.0374 69.3267 41.3183 69.1632 41.5937C69.0054 41.8749 68.577 42.5043 68.2106 42.993C66.8298 44.8534 66.5874 45.6906 67.0269 47.1067C67.4047 48.3319 68.577 48.0623 68.3797 46.7864C68.2333 45.8368 68.3797 45.4039 69.2534 44.2518C69.541 43.881 69.834 43.482 69.9129 43.3641C70.0538 43.1616 70.0538 43.1616 70.4313 43.6787C71.2881 44.8757 71.4066 45.4828 70.995 46.6517C70.578 47.8374 71.6997 48.4555 72.404 47.4384C73.244 46.2358 72.9905 44.5441 71.7279 42.8525C71.119 42.0435 71.0175 41.8749 70.8935 41.4927C70.702 40.9138 70.0482 40.6497 69.6085 40.9756Z" fill="#05667F"/>
<path d="M37.8017 45.3929C37.4354 45.4939 37.3508 45.7806 37.3508 46.9271C37.3508 47.8543 37.3508 47.8543 37.0296 48.0116C36.387 48.3264 35.9868 48.8714 35.8177 49.6471C35.5697 50.8102 35.9699 58.2397 36.5054 62.3253C36.5899 62.9884 36.5899 62.9773 36.3645 63.0278C35.8403 63.1401 35.6261 63.8314 36.0037 64.1854C36.2066 64.3708 36.5392 64.3598 38.5063 64.1012C40.4959 63.8427 41.984 63.7695 42.1136 63.9268C42.4349 64.3148 42.0684 66.793 41.5725 67.5348C40.5637 69.069 37.9257 67.9114 37.1479 65.5905C36.7421 64.3821 35.9756 64.1123 35.7106 65.0789C35.2992 66.6131 37.0634 69.0635 38.9854 69.6311C39.2108 69.6984 39.2108 69.6984 39.2165 70.8281C39.2278 74.8743 40.5748 78.3136 42.6208 79.5275C43.9003 80.2863 45.0502 80.2692 47.7331 79.4657C50.2865 78.6958 51.1261 78.8026 51.8363 79.9715C52.5691 81.1741 53.747 80.7808 53.3637 79.4602C52.7496 77.3583 50.7373 76.8075 47.3553 77.8078C44.244 78.7353 43.3368 78.4767 42.3109 76.3917C41.5218 74.7957 40.4959 69.7997 40.9581 69.7997C41.0032 69.7997 41.0428 69.8334 41.0483 69.867C41.0483 69.9065 41.0597 70.1032 41.0765 70.3055C41.2061 72.5028 42.1249 74.8012 43.3479 76.0208C45.022 77.6897 46.7636 77.7124 49.9483 76.1163C53.0313 74.5708 53.9895 75.1384 54.6827 78.9262C54.9252 80.2356 55.1449 80.6064 55.6691 80.6064C57.1345 80.6064 56.2948 76.0769 54.5305 74.4698C53.1384 73.1941 51.7068 73.2109 48.9337 74.5203C46.5212 75.661 45.5575 75.6836 44.4923 74.6384C43.1901 73.3627 41.9331 69.6535 42.5702 68.9735C44.3118 67.0966 44.3174 62.7974 42.5813 62.2916C42.3729 62.2298 42.2826 62.1735 42.2826 62.1117C42.2826 62.0612 42.232 61.4318 42.17 60.7237C42.0684 59.5098 41.9951 58.4027 41.9162 56.9585C41.454 48.2814 41.1103 47.0618 39.2503 47.3653C38.9121 47.4216 38.9347 47.4553 38.8726 46.8427C38.743 45.6738 38.4105 45.2243 37.8017 45.3929ZM39.6279 49.13C39.8196 49.7199 40.0112 51.9849 40.1972 55.7782C40.231 56.4245 40.2648 57.1326 40.2818 57.3517C40.2987 57.5653 40.3494 58.3241 40.3946 59.0377C40.4846 60.4033 40.5637 61.2127 40.6481 61.7463C40.6819 61.9262 40.7046 62.1004 40.7046 62.1343C40.7046 62.1735 40.5466 62.2185 40.3268 62.2411C40.1127 62.2579 39.4983 62.3534 38.9572 62.4434C38.4161 62.5333 37.9708 62.6062 37.9708 62.6062C37.9708 62.6062 37.9765 62.269 37.9877 61.8644C38.0047 61.1787 37.9088 59.1276 37.5988 53.4178C37.4636 50.962 37.4692 49.8943 37.6157 49.6694C37.7397 49.484 39.0643 48.984 39.5321 48.9501C39.549 48.9501 39.5941 49.0345 39.6279 49.13Z" fill="#05667F"/>
<path d="M96.167 45.8414C95.609 45.9537 93.3883 48.4038 92.9093 49.438C92.0807 51.225 92.7457 53.8663 93.9521 53.5796C94.4536 53.4618 94.5493 53.0796 94.2731 52.2929C93.8109 50.9609 94.0985 50.0898 95.4737 48.6623C96.0092 48.1115 96.0092 48.1115 96.1839 48.4487C96.3419 48.7578 96.5616 49.05 97.3676 50.0335C98.0102 50.8205 98.0946 51.27 97.7395 51.9836C97.1423 53.1806 97.9651 53.9618 98.9063 53.0964C100.034 52.0625 99.8251 50.5114 98.3315 48.8086C97.61 47.9879 97.3844 47.5608 97.2945 46.8753C97.1816 46.0436 96.821 45.7064 96.167 45.8414Z" fill="#05667F"/>
<path d="M68.825 47.1007C68.5939 47.348 68.5319 47.646 68.5657 48.3372C68.5881 48.9327 68.5881 48.9327 68.233 49.0845C67.3031 49.4893 66.8916 50.4896 66.6887 52.8555C66.3729 56.5421 66.469 61.229 66.948 66.0113C66.9818 66.3485 66.9818 66.3485 66.7 66.534C64.964 67.641 64.7273 72.3 66.3167 74.0534C66.6323 74.3961 66.6323 74.3961 66.3901 74.6547C65.567 75.5427 65.0204 75.5427 63.7069 74.666C61.3622 73.0923 58.9611 73.9747 57.4337 76.9814C56.5882 78.639 57.7381 79.4765 58.6287 77.8468C59.4573 76.3238 60.6352 75.3065 61.5482 75.3065C61.8753 75.3065 62.1626 75.4582 62.9685 76.0653C64.8117 77.4364 67.0607 77.0769 68.0415 75.2504C68.0977 75.1436 68.3739 75.1268 68.4868 75.2278C68.5939 75.3291 67.7539 77.3633 67.3369 78.0096C66.2716 79.6506 65.5106 79.7237 64.2483 78.3018C62.3317 76.1439 60.6183 76.3688 58.2678 79.0998C57.8959 79.5328 57.383 80.0891 57.1237 80.3363C56.2162 81.2075 56.6446 82.2751 57.6255 81.5952C58.0425 81.3085 58.7809 80.6509 59.2204 80.1732C60.9789 78.2681 61.8358 77.9759 62.7715 78.9652C64.2876 80.5612 64.7611 80.8703 65.7306 80.8703C67.5735 80.8703 69.49 78.6448 70.0649 75.8291C70.2002 75.1941 70.1664 75.2278 70.651 75.1436C73.8694 74.5816 76.0846 71.8392 75.972 68.5627C75.9268 67.242 75.6562 66.7084 75.0362 66.7084C74.4218 66.7084 74.2923 66.9837 74.2359 68.3381C74.1232 71.3447 72.8607 73.0081 70.3242 73.4803C67.7426 73.969 66.7056 72.6204 67.0834 69.2652C67.258 67.731 67.9964 67.4106 73.3397 66.5058C74.4501 66.3204 74.6361 66.2081 74.6361 65.7359C74.6361 65.2301 74.3823 65.1123 73.4073 65.1628C72.5955 65.2023 72.5955 65.2023 72.6406 63.6062C72.7815 58.3178 72.6916 51.9562 72.4605 50.8041C72.2349 49.6579 71.553 49.0114 70.4819 48.9103C70.1269 48.8767 70.1269 48.8767 70.1269 48.6463C70.1269 47.2188 69.4563 46.4263 68.825 47.1007ZM70.6342 50.5682C71.085 50.8996 71.209 54.6088 70.9723 60.8918C70.9386 61.7571 70.9048 63.1285 70.899 63.9434C70.8879 65.4158 70.8879 65.4158 70.7188 65.4437C70.11 65.5395 69.146 65.7191 68.8812 65.7809C68.5599 65.854 68.5599 65.854 68.5261 64.9156C68.5037 64.4042 68.4528 63.0328 68.4021 61.8752C68.1204 54.8784 68.2612 51.1245 68.8192 50.6132C69.0672 50.3938 70.3466 50.3602 70.6342 50.5682Z" fill="#05667F"/>
<path d="M16.9589 49.141C16.5193 49.2983 16.5249 49.2927 15.5385 52.069C14.7889 54.1877 14.7382 55.7779 15.3807 57.0876C15.9838 58.3069 17.0491 57.9416 16.694 56.6378C16.5305 56.0423 16.5587 54.8789 16.7447 54.1369C16.8631 53.6761 17.4098 52.1082 17.4775 52.024C17.5 52.0014 17.8551 52.3444 18.2666 52.7826C19.3713 53.9686 19.6024 54.5359 19.3769 55.4915C19.174 56.34 19.484 56.8177 20.1886 56.7614C20.9213 56.7054 21.4173 55.2721 21.1129 54.1032C20.9044 53.2942 20.5887 52.8276 19.484 51.7036C18.5371 50.737 18.3455 50.4785 18.12 49.8548C17.8833 49.2141 17.4718 48.9613 16.9589 49.141Z" fill="#05667F"/>
<path d="M95.2927 52.2258C94.9883 52.5293 94.8698 53.2037 94.8698 54.7209C94.8698 55.5697 94.8698 55.5697 94.5768 55.6033C92.3729 55.8729 92.3787 55.8674 92.249 60.8355C92.2038 62.5943 92.1363 64.9997 92.1025 66.1741C92.0292 68.5401 92.0857 73.0305 92.1925 73.9689C92.2321 74.278 92.3223 74.2385 91.2681 74.3735C90.2538 74.5084 89.9776 74.7275 90.1071 75.3064C90.2256 75.8401 90.2538 75.8401 94.2161 75.7673C98.5673 75.6886 98.3307 75.6605 98.2856 76.2168C98.06 78.9086 96.5384 80.6341 94.2781 80.7408C92.5083 80.825 91.7023 80.1114 91.0315 77.8633C90.6878 76.6889 90.4567 76.3741 89.9663 76.3741C89.3294 76.3741 89.087 77.1103 89.3181 78.3241C89.3632 78.5659 89.4025 78.7681 89.4025 78.7737C89.4025 78.785 89.3067 78.8355 89.1941 78.8975C89.0757 78.9594 88.6641 79.2795 88.2753 79.6111C81.9851 84.9893 76.67 86.9057 70.1881 86.1358C68.8298 85.9727 68.5029 86.0345 68.4182 86.4672C68.328 86.962 68.5873 87.1753 69.4553 87.327C75.599 88.4062 80.7281 87.1584 86.2743 83.2359C87.5933 82.3087 89.583 80.6451 89.8309 80.2629C89.9156 80.1338 89.9156 80.1338 90.186 80.5441C90.3327 80.7687 90.5862 81.0891 90.7498 81.2577C91.088 81.6062 91.1104 81.5276 90.3778 82.4716C87.4467 86.2426 82.436 89.2043 77.9608 89.8111C74.1731 90.3282 68.0859 88.5972 65.059 86.1471C63.8697 85.186 63.8866 85.1973 63.5935 85.1973C63.1709 85.1973 62.9171 85.54 63.0298 85.9504C63.1369 86.3268 64.6983 87.7318 65.6958 88.3444C66.8795 89.0635 70.0135 90.3282 70.9151 90.446C70.994 90.4573 71.1294 90.491 71.214 90.5305C71.3043 90.5641 71.4111 90.5923 71.4507 90.5923C71.4958 90.5923 71.5973 90.6541 71.6818 90.7327C71.8509 90.89 71.9862 90.9239 71.8677 90.7777C71.7944 90.6935 71.8057 90.6877 71.958 90.7272C75.0297 91.5084 77.7015 91.5812 80.2491 90.9518C84.6794 89.8674 89.7183 86.4562 92.063 82.9492C92.4632 82.3537 92.4632 82.3537 92.8633 82.466C94.4755 82.9042 96.5553 82.3537 97.8347 81.1396C99.6101 79.4538 100.523 75.4974 99.3622 74.4858C99.1084 74.2667 99.1084 74.2667 99.1593 73.5081C99.3115 71.1982 99.3566 59.0369 99.2155 57.632C99.0408 55.8729 98.6011 55.4516 96.9441 55.4629C96.3862 55.4629 96.3297 55.4571 96.358 55.3674C96.5495 54.7435 96.5946 52.7653 96.4255 52.4449C96.1944 51.9954 95.6309 51.8886 95.2927 52.2258ZM97.5472 57.0531C97.8178 57.323 97.801 66.6407 97.5079 72.6201C97.4401 74.0139 97.4401 74.0139 96.3129 74.0194C95.6871 74.0194 94.8756 74.0418 94.5034 74.0699C93.6975 74.1207 93.8159 74.3398 93.7822 72.7774C93.7653 72.0525 93.7202 70.6306 93.6806 69.619C93.63 68.1915 93.63 67.3262 93.6806 65.7414C93.7202 64.6175 93.7822 62.3807 93.8273 60.7679C93.9117 57.6939 93.9344 57.2893 94.0526 57.2443C94.1315 57.2162 95.1292 57.1149 96.0253 57.0421C96.713 56.9913 97.4907 56.9971 97.5472 57.0531Z" fill="#05667F"/>
<path d="M17.4941 55.9524C17.0996 56.2278 16.9361 57.3911 17.1221 58.6726C17.1503 58.8636 17.1334 58.8859 16.8685 59.0545C15.7694 59.7684 15.2959 61.134 15.2452 63.7246C15.2058 65.5792 15.2452 66.2144 15.7638 71.9634C15.837 72.7951 15.8878 73.4863 15.8765 73.4976C15.8652 73.5089 15.5609 73.5707 15.1889 73.6436C14.2363 73.818 14.0165 74.0034 14.1574 74.5203C14.3321 75.1723 14.9747 75.161 18.6947 74.4642C20.7463 74.0763 20.5829 74.0258 20.5829 75.0374C20.5829 78.8926 19.7769 80.3368 18.0803 79.4996C17.0207 78.977 16.1019 77.746 15.7074 76.3186C15.4143 75.2509 14.7718 74.9419 14.3941 75.6781C13.8136 76.802 15.0874 79.4546 16.722 80.5391C17.094 80.7864 17.094 80.7864 17.0658 81.0394C16.9869 81.6801 16.9643 83.7707 17.0263 84.6079C17.6069 92.5881 20.4871 95.8699 27.0366 96.0275C31.106 96.1229 34.1215 95.1845 40.2539 91.9137C43.3144 90.284 45.0956 89.4297 46.7301 88.8171C47.8856 88.3844 48.19 87.7269 47.4741 87.2211C46.7077 86.6874 44.2106 87.6369 39.2112 90.3682C33.2704 93.6108 29.945 94.6392 26.2869 94.3638C21.3269 93.993 19.3429 91.5089 18.6383 84.7765C18.3509 82.0342 18.5087 80.8763 19.1005 81.3429C19.1062 81.3484 19.2076 81.7924 19.3203 82.3319C21.6707 93.5826 24.7764 95.4935 33.6086 91.1212C38.2586 88.8171 40.5527 87.9631 43.6864 87.356C45.0729 87.0919 45.4001 86.8952 45.4001 86.3557C45.4001 84.5797 40.3216 85.8836 33.0675 89.5252C25.5993 93.2736 23.7844 92.4419 21.2931 84.1302C20.2729 80.7414 20.3067 80.9268 20.6618 80.5899C21.6538 79.6569 22.1273 77.6842 22.0314 74.9137C21.9694 73.2109 21.682 72.7895 20.5885 72.7614C20.132 72.7501 20.132 72.7501 20.1263 72.3847C20.1263 72.1825 20.1151 71.6035 20.1038 71.0922C20.0925 70.5809 20.1094 68.4059 20.1432 66.2594C20.2391 60.3528 20.0474 59.2794 18.8074 58.8354C18.6158 58.7623 18.6158 58.7623 18.644 58.4532C18.6834 58.0768 18.582 56.7675 18.4918 56.4527C18.3509 55.9695 17.8436 55.7109 17.4941 55.9524ZM18.3678 60.5269C18.6721 61.1395 18.7229 62.4715 18.582 66.5403C18.5256 68.1305 18.4805 70.2324 18.4749 71.2158C18.4692 72.9918 18.4692 72.9918 17.9901 73.0873C17.7252 73.1378 17.4716 73.1885 17.4209 73.2054C17.342 73.2277 17.3251 73.0873 17.2969 71.9802C17.263 70.7776 17.1503 68.8612 17.0319 67.6079C16.6656 63.6236 16.9136 61.2182 17.7647 60.4483C18.0691 60.1787 18.2043 60.1955 18.3678 60.5269Z" fill="#05667F"/>
<path d="M53.364 60.6505C53.1271 60.8865 52.9693 61.3081 52.7665 62.2803C52.3605 64.1572 51.9434 66.883 52.0167 67.1584C52.1465 67.6584 52.7665 67.8102 53.0313 67.3998C53.1553 67.2144 54.2319 61.8981 54.2319 61.4822C54.2319 60.5606 53.8317 60.1839 53.364 60.6505Z" fill="#05667F"/>
<path d="M57.3319 66.0889C57.1517 66.2857 57.1573 66.2352 57.0219 67.8312C56.9375 68.8988 56.8811 69.3092 56.4526 72.1583C56.1034 74.485 56.1878 75.1931 56.8246 75.1931C57.2361 75.1931 57.4448 74.721 57.6928 73.2262C58.2958 69.5451 58.4874 66.443 58.1267 66.0834C57.8901 65.8475 57.5519 65.853 57.3319 66.0889Z" fill="#05667F"/>
<path d="M59.9132 80.3253C59.5243 80.6511 59.5299 81.0052 59.9583 81.966C60.9164 84.1465 61.0066 85.3604 60.3416 87.0745C58.5435 91.7164 51.7347 93.1271 50.1398 89.1877C49.6776 88.0525 49.514 85.6584 49.8071 84.3827C50.1115 83.0676 48.9392 82.7022 48.5445 83.9892C47.3271 87.9062 48.5501 91.6154 51.4248 92.7507C56.4017 94.7118 62.5341 90.278 62.5285 84.7199C62.5285 82.0618 60.9671 79.4373 59.9132 80.3253Z" fill="#05667F"/>
<path d="M50.8059 82.4326C49.6278 83.4555 53.4323 85.0234 55.5008 84.3716C57.0285 83.8882 56.8085 82.4889 55.2586 82.8206C54.3061 83.0228 52.9082 82.8992 51.9724 82.5226C51.409 82.2979 50.9974 82.2698 50.8059 82.4326Z" fill="#05667F"/>
<path d="M58.2908 84.8601C55.929 85.7986 52.7784 86.282 50.7829 86.0177C50.225 85.9448 49.8699 86.2707 49.9826 86.7484C50.411 88.558 59.3502 87.4451 59.8747 85.5232C60.0717 84.7815 59.3054 84.4611 58.2908 84.8601Z" fill="#05667F"/>
<path d="M50.8723 88.7882C50.2355 89.1817 50.5961 89.8503 51.5883 90.1144C54.0288 90.7606 57.1005 90.3616 57.2923 89.3726C57.4218 88.6982 56.8187 88.5351 55.2462 88.8218C54.5078 88.9568 52.8113 88.9568 52.1463 88.8274C51.3345 88.6645 51.0697 88.6588 50.8723 88.7882Z" fill="#05667F"/>
<path d="M60.922 89.9689C60.7474 90.1767 60.6347 90.6375 60.6798 90.9355C61.4237 95.5887 57.5516 100.186 54.5247 98.2356C53.4933 97.5725 52.2083 95.7124 51.5488 93.9364C51.3232 93.3351 51.171 93.1778 50.8049 93.1778C48.8432 93.1778 51.5261 98.6964 54.0963 99.9439C58.3238 102.001 63.4416 96.2068 62.2241 90.733C62.0437 89.9071 61.328 89.4912 60.922 89.9689Z" fill="#05667F"/>
<path d="M68.5314 90.884C68.4301 90.9852 68.2947 91.193 68.2383 91.3506C68.1876 91.5023 68.0919 91.7496 68.0354 91.89C66.7673 95.0372 67.8157 98.7124 69.9857 98.7124C71.3496 98.7124 71.8627 97.2232 71.3496 94.756C70.7297 91.8001 69.4389 90.0241 68.5314 90.884Z" fill="#05667F"/>
<path d="M79.427 92.6278C79.0606 92.8751 78.9761 93.156 78.807 94.6679C78.4124 98.2027 79.2692 100.4 81.0277 100.394C83.2935 100.389 83.8742 96.9607 82.0592 94.2744C81.0391 92.7683 80.0978 92.178 79.427 92.6278Z" fill="#05667F"/>
<path d="M40.0849 93.0476C38.6758 93.6039 39.7073 99.4429 41.3362 100.145C44.0586 101.314 44.0473 96.1666 41.3193 93.4072C40.9529 93.0363 40.4738 92.8958 40.0849 93.0476Z" fill="#05667F"/>
<path d="M58.2336 94.4922C58.1096 94.5711 57.9518 94.7789 57.8165 95.0261C57.563 95.4814 57.5179 95.4983 57.2641 95.2229C56.5935 94.4867 56.5708 94.4698 56.2047 94.4698C55.7594 94.4698 55.4832 94.7116 55.3365 95.2284C55.0716 96.1445 54.7221 96.2119 54.0008 95.4757C53.4484 94.9083 52.6705 95.2792 52.8733 96.0209C53.2625 97.4315 55.2803 97.971 56.2498 96.9202C56.4751 96.6727 56.4751 96.6727 56.8301 96.8526C57.9123 97.3866 59.0959 96.7177 59.2764 95.4646C59.4059 94.5879 58.8538 94.0708 58.2336 94.4922Z" fill="#05667F"/>
<path d="M29.4929 96.5603C29.2111 96.639 28.7038 97.1785 28.4502 97.673C28.3318 97.9034 28.1064 98.3024 27.9542 98.5609C26.0153 101.798 26.1393 104.214 28.2473 104.063C30.1242 103.928 31.3586 102.242 31.3473 99.8366C31.3417 97.4933 30.6258 96.2345 29.4929 96.5603Z" fill="#05667F"/>
<path d="M56.7575 100.523C56.7971 100.54 56.848 100.534 56.8649 100.517C56.8876 100.5 56.8536 100.483 56.7916 100.489C56.7293 100.489 56.7124 100.506 56.7575 100.523Z" fill="#05667F"/>
<path d="M56.2558 101.348C55.371 101.663 55.1003 102.388 54.7339 105.456C54.3788 108.424 55.7371 110.413 57.5183 109.542C60.0604 108.295 58.8484 100.421 56.2558 101.348Z" fill="#05667F"/>
</g>
<defs>
<clipPath id="clip0_13_2822">
<rect width="86" height="106" fill="white" transform="translate(14 4)"/>
</clipPath>
</defs>
</svg>
