<svg width="137" height="164" viewBox="0 0 137 164" fill="none" xmlns="http://www.w3.org/2000/svg">
<g clip-path="url(#clip0_59_189)">
<g clip-path="url(#clip1_59_189)">
<path d="M16.3843 26.2323C11.9439 26.8755 9.36766 29.5382 9.34671 33.515C9.33972 34.5455 9.32577 34.6976 9.23499 34.6631C2.30211 31.6822 -4.7076 37.9413 -0.81876 43.6333C0.71027 45.8534 2.72799 45.2032 1.34561 42.9348C-1.64958 38.0105 3.44012 34.6216 9.59803 37.4434C11.5111 38.3217 12.4047 37.6024 11.8881 35.6036C9.4305 26.0663 24.6509 26.4813 30.5223 36.1085C31.6745 37.9966 32.9522 36.6756 32.0304 34.5524C29.7544 29.3238 22.3259 25.3747 16.3843 26.2323Z" fill="black"/>
<path d="M33.3149 32.5122C31.9885 32.9686 32.2748 34.2758 33.7759 34.5939C37.6645 35.4308 39.8568 38.2387 39.2915 41.6553C38.9981 43.4258 39.1866 43.6886 41.5815 44.8643C45.8681 46.9669 48.8284 49.8923 49.2404 52.4375C49.443 53.717 48.9051 54.2703 46.9504 54.7475C44.765 55.2869 44.5346 55.944 45.6518 58.3991C48.0327 63.6624 46.8386 67.2034 42.6707 67.2105C41.5744 67.2105 41.2463 67.3762 41.1835 67.9433C41.0228 69.3476 44.5209 69.4372 46.5874 68.0748C49.443 66.1938 49.9387 62.2793 47.886 57.8044C47.4252 56.7947 47.4321 56.8638 47.7601 56.8154C49.1777 56.5872 50.5949 55.6742 51.1533 54.6299C53.0385 51.075 49.1009 45.6943 42.3423 42.6166C41.6162 42.2846 41.6162 42.2846 41.6583 42.0425C42.3004 38.1004 40.562 34.9258 36.7989 33.1484C35.4794 32.5329 34.0341 32.2632 33.3149 32.5122Z" fill="black"/>
<path d="M27.5686 38.861C27.2056 39.1445 27.1425 39.5664 27.1425 41.7934C27.1357 44.0412 27.0798 44.3939 26.5772 45.3552C25.823 46.8007 27.2824 47.3609 28.2947 46.0122C29.9495 43.8199 29.3071 37.5054 27.5686 38.861Z" fill="black"/>
<path d="M14.4367 40.8807C13.5919 41.2749 13.7943 42.2155 14.7718 42.4852C18.2138 43.4327 19.5265 47.7138 17.1526 50.2728C16.1472 51.3586 16.601 52.2438 18.2417 52.3753C22.0818 52.6865 25.2584 55.363 25.0489 58.1156C24.9303 59.6304 24.979 59.8376 25.5097 60.1004C25.9286 60.3151 26.3057 60.2665 27.0386 59.8861C29.3286 58.7173 31.5977 58.8073 33.6783 60.1629C35.5216 61.3661 36.6388 60.1351 35.0537 58.6551C33.2175 56.9468 30.5018 56.518 27.2762 57.431C27.1435 57.4655 27.1226 57.431 27.0876 57.1266C26.7524 54.3187 23.3595 51.2064 19.9591 50.5771C19.6591 50.5148 19.652 50.5771 20.015 49.7125C21.0273 47.2781 20.3921 44.5116 18.3465 42.4783C17.1037 41.2403 15.2745 40.4933 14.4367 40.8807Z" fill="black"/>
<path d="M35.1716 44.3463C34.7318 44.4846 34.655 44.5399 33.3005 45.688C31.8624 46.9053 30.8288 47.7214 30.0259 48.2539C29.0976 48.8764 28.909 49.4504 29.4675 49.9414C30.5498 50.9028 35.9885 47.2165 36.3585 45.28C36.4911 44.5745 35.9046 44.1181 35.1716 44.3463Z" fill="black"/>
<path d="M3.73385 46.1173C-0.00836671 47.4452 -0.713539 51.7263 2.2956 54.8247C2.93794 55.4886 2.93794 55.4886 2.65865 55.6961C1.30421 56.692 -1.50246 60.7588 -2.66146 63.4145C-5.27962 69.3971 -4.60238 74.4044 -0.504078 79.3563C0.0754184 80.0478 0.0754186 80.0478 0.0125804 80.6356C-0.203873 82.8212 -0.664654 93.7555 -0.573909 94.5301C-0.371442 96.1693 1.17154 96.1625 1.52063 94.5301C1.73705 93.5205 1.98141 88.1189 1.97445 84.7162C1.96746 83.3262 1.96746 82.1295 1.96746 82.0605C1.97445 81.9773 2.17692 82.1159 2.65865 82.5377C3.02868 82.8627 3.69196 83.3951 4.12484 83.7201C4.55072 84.0383 4.89282 84.3358 4.87187 84.3704C4.78113 84.5087 4.75319 93.8315 4.83697 94.2951C5.05339 95.4361 6.28218 95.7197 6.78489 94.7447C7.16189 94.0115 7.12699 89.2599 6.72205 85.9957C6.63827 85.3454 6.63128 85.3526 6.98736 85.5322C7.14094 85.6083 7.49702 85.7536 7.77628 85.8436C8.27899 86.0093 8.29294 86.0165 8.40466 86.3483C8.83054 87.6003 9.84988 88.866 11.0926 89.682C11.3789 89.8688 11.3789 89.8688 11.0717 90.2077C5.07434 96.7711 16.9713 103.265 33.9299 102.684C50.6025 102.11 57.5424 94.8415 47.1116 88.8796C42.2034 86.0718 31.2282 83.8933 28.0585 85.0965C28.0026 85.1172 27.9536 84.9237 27.8908 84.4187C27.1648 78.0907 16.9294 74.2312 11.7629 78.3325C11.5953 78.4639 11.4348 78.5471 11.4138 78.5125C11.3859 78.471 11.2602 78.2982 11.1415 78.125C9.10981 75.2619 10.1361 72.7445 14.7022 69.3485C16.9643 67.6679 19.0448 66.5061 20.2316 66.264C21.1812 66.0772 21.8796 65.8558 22.6056 65.524C23.1082 65.2958 23.1082 65.2958 23.1922 65.7869C24.3581 72.6684 31.703 77.3229 36.1572 74.0101C39.4386 71.5756 41.2679 65.1298 39.1243 63.5737C38.1119 62.8406 37.5744 63.5252 37.5048 65.6554C37.2672 72.5645 32.8058 75.1512 28.3516 70.9599C26.4596 69.1757 25.3705 66.9418 25.126 64.3412C24.9443 62.4463 24.3372 62.1834 22.3331 63.1587C16.4616 66.0219 10.178 62.4809 13.3128 58.0822C14.0878 56.9964 13.627 56.0074 12.3773 56.0765C8.68392 56.2909 6.11462 55.4126 4.00612 53.1994C2.16297 51.2767 2.55392 48.7938 4.87187 47.6734C6.39391 46.9334 5.36059 45.5363 3.73385 46.1173ZM5.68873 57.2177C7.02226 57.8401 8.46747 58.2274 9.92667 58.3519C10.7854 58.4279 10.7156 58.3797 10.576 58.8429C9.71721 61.7545 11.735 64.9223 15.1281 66.0012C15.6029 66.1533 15.6098 66.1601 15.4423 66.2572C15.3515 66.3122 14.8698 66.6029 14.3671 66.8933C12.9288 67.73 11.6372 68.6914 10.562 69.7082C9.90572 70.3238 8.98413 70.4206 7.17587 70.0471C4.69035 69.5353 -0.79033 65.7315 -0.462186 64.7423C0.0474796 63.1795 1.86972 59.8664 3.30797 57.9024C4.3971 56.4085 4.32031 56.4777 4.69734 56.7059C4.87886 56.8165 5.32569 57.0448 5.68873 57.2177ZM1.15759 70.0403C3.23115 71.5963 5.54211 72.5645 7.70648 72.7791C8.17426 72.8273 8.17426 72.8273 7.97179 73.3805C7.67854 74.1759 7.53192 75.0683 7.58081 75.8222C7.62966 76.5136 7.58777 76.5622 6.61732 77.0461C5.35363 77.6825 2.78432 77.9385 1.59046 77.5579C0.745659 77.2882 -0.846176 74.3558 -1.31398 72.2049C-1.55135 71.0845 -1.5653 68.1382 -1.32794 67.744C-1.31398 67.7164 -0.888068 68.1107 -0.392388 68.6293C0.110318 69.141 0.808497 69.7774 1.15759 70.0403ZM8.87244 79.5085C9.04001 79.7642 9.29832 80.1031 9.4519 80.2692C9.73815 80.5595 9.73815 80.5595 9.38906 81.0991C8.96318 81.7559 8.66298 82.3441 8.5024 82.8419C8.43257 83.0494 8.36973 83.243 8.35578 83.2708C8.2301 83.4783 4.69734 81.0645 3.93632 80.2553C3.76875 80.0756 3.76875 80.0756 4.35521 80.0756C5.5561 80.0756 6.99432 79.771 7.94385 79.3146C8.25105 79.1696 8.51635 79.0517 8.5373 79.0449C8.55825 79.0449 8.70487 79.2524 8.87244 79.5085ZM18.7445 79.446C24.7212 80.4627 27.3742 85.7122 23.0036 87.8839C17.3902 90.6709 9.28436 87.545 11.0857 83.2844C12.3843 80.1999 15.1141 78.8375 18.7445 79.446ZM28.7146 90.3459C36.283 90.4634 41.8123 91.9159 42.4269 93.9494C43.0272 95.9132 27.1157 97.1168 21.9701 95.4915C18.612 94.4333 17.0202 91.7498 19.5895 91.4941C21.0835 91.3488 22.7942 90.9131 23.8624 90.422C24.1905 90.2699 24.2741 90.256 25.3633 90.2838C25.9988 90.2974 27.5069 90.3252 28.7146 90.3459Z" fill="black"/>
<path d="M5.5342 59.7962C5.17115 59.9826 3.39779 62.7286 3.01377 63.7035C2.45525 65.1077 3.30002 65.7509 4.28446 64.6788C4.6126 64.3192 6.02991 62.099 6.53957 61.1586C7.03529 60.2247 6.39295 59.3533 5.5342 59.7962Z" fill="black"/>
<path d="M7.09191 62.613C7.07097 62.6755 7.07097 62.7376 7.08492 62.7583C7.1059 62.7794 7.14083 62.7308 7.16181 62.6476C7.20373 62.4884 7.15481 62.4609 7.09191 62.613Z" fill="black"/>
<path d="M10.0378 64.5144C9.64682 64.6805 7.98519 66.6583 7.73383 67.2532C7.33586 68.1936 7.81063 68.8092 8.64148 68.415C9.25587 68.1246 11.0921 65.8354 11.134 65.3026C11.1759 64.7219 10.5684 64.2862 10.0378 64.5144Z" fill="black"/>
<path d="M16.6701 80.8143C13.8773 81.4025 12.1109 83.7884 13.0605 85.6902C14.757 89.1 22.1089 88.1318 22.3461 84.4663C22.4997 82.1146 19.5326 80.2057 16.6701 80.8143ZM18.618 83.1935C19.6722 83.5117 20.2796 84.2034 19.9097 84.6666C19.0438 85.7527 15.2388 85.6141 15.2388 84.4938C15.2388 83.3663 16.9912 82.6888 18.618 83.1935Z" fill="black"/>
<path d="M33.8939 91.0704C33.1747 91.2432 32.9094 92.1078 33.3632 92.7649C33.4609 92.9103 33.5309 93.0346 33.5168 93.0414C32.3649 94.0996 26.7308 93.3596 26.7167 92.1493C26.7098 91.1536 25.5786 91.0497 25.09 91.9971C23.547 94.9713 31.8411 97.0876 35.0389 94.5424C36.6519 93.256 35.7791 90.614 33.8939 91.0704Z" fill="black"/>
<path d="M35.2625 50.9592C33.9502 51.1943 33.4195 51.6439 33.6989 52.294C33.8871 52.7436 34.0407 52.792 35.3814 52.7989C36.7709 52.8058 37.7342 52.9718 39.3259 53.4836C41.3646 54.1406 42.391 53.8156 41.6999 52.7366C40.9738 51.5955 37.3221 50.5857 35.2625 50.9592Z" fill="black"/>
<path d="M-3.33239 92.08C-7.70995 93.2071 -8.3034 95.2267 -4.91726 97.4884C-0.867842 100.199 3.43293 102.496 8.42489 104.598C14.8342 107.309 17.1032 108.278 18.346 108.845C26.1096 112.379 26.9683 112.42 35.5909 109.688C49.5545 105.262 50.9926 104.847 56.8575 103.561C62.3659 102.35 63.5599 101.659 63.3086 99.8397C62.9315 97.1355 55.1958 92.7646 54.4766 94.8531C54.2113 95.6142 54.742 96.1534 57.1996 97.6405C58.8263 98.6226 59.636 99.169 60.1317 99.6186C60.6206 100.075 60.4739 100.123 56.5013 100.967C50.6576 102.205 48.647 102.793 36.2892 106.839C26.7938 109.951 26.5635 109.951 20.3009 106.963C17.948 105.836 17.0334 105.442 12.6908 103.644C5.77183 100.787 4.7804 100.303 -1.37751 96.7066C-3.68148 95.3649 -4.44949 94.8878 -4.44949 94.7978C-4.44949 94.7635 -3.83509 94.4314 -3.08803 94.0649C-1.53808 93.311 -1.37751 93.1796 -1.37751 92.6746C-1.38447 91.9072 -1.97096 91.734 -3.33239 92.08Z" fill="black"/>
<path d="M-9.02205 95.0749C-9.95763 95.6349 -11.1864 97.9034 -11.1864 99.0586C-11.1864 100.532 -10.6907 100.974 -7.97477 101.915C-6.0548 102.579 -4.7911 103.097 -1.62139 104.522C-0.120295 105.193 2.28141 106.251 3.71966 106.874C8.13216 108.776 9.3819 109.384 13.2358 111.466C24.5532 117.587 25.1047 117.711 31.2628 115.692C35.5075 114.302 37.7907 113.686 43.9346 112.268C47.4115 111.466 50.5743 110.691 53.2205 110C57.3048 108.921 59.1619 108.478 63.9932 107.427C67.3864 106.687 68.1684 106.307 68.4477 105.297C68.8876 103.678 66.4159 100.974 65.18 101.721C64.5797 102.081 64.6915 102.69 65.5084 103.554C66.3182 104.405 66.4231 104.598 66.1577 104.702C65.7947 104.84 64.1608 105.235 60.7957 106.002C57.4584 106.763 56.6206 106.971 50.8465 108.423C48.1516 109.101 46.3992 109.516 40.8627 110.788C36.5898 111.777 33.5319 112.607 30.041 113.741C25.3769 115.263 25.0907 115.18 14.8346 109.578C10.6595 107.296 9.11656 106.535 4.94146 104.695C3.7127 104.156 1.7508 103.277 0.577885 102.745C-3.53437 100.878 -5.12624 100.206 -6.99734 99.5426C-8.56823 98.9894 -8.63806 98.9547 -8.63806 98.8165C-8.63806 98.609 -8.30292 97.613 -7.96082 96.7762C-7.39531 95.4206 -8.00271 94.4524 -9.02205 95.0749Z" fill="black"/>
<path d="M0.270062 108.015C-4.08659 108.354 -4.60321 109.84 -1.78259 113.893C-1.32181 114.557 -0.295482 116.037 0.493476 117.179C1.2824 118.32 2.17605 119.592 2.47629 120.007C2.7765 120.422 3.01387 120.768 3.00691 120.782C2.97201 120.81 0.437597 121.916 0.395705 121.916C0.374759 121.916 0.270062 121.854 0.158339 121.778C-0.435111 121.356 -1.0565 121.508 -3.36746 122.642C-4.32395 123.113 -5.5318 123.68 -6.04147 123.915C-7.53557 124.579 -7.78692 124.869 -7.71013 125.831C-7.58445 127.477 -6.50924 127.615 -2.94854 126.446C-0.386227 125.602 1.38713 124.724 1.68734 124.15C1.81301 123.908 1.90379 123.853 2.86028 123.445C5.23408 122.428 5.74375 121.985 5.74375 120.955C5.74375 120.339 5.71581 120.298 3.29316 116.867C0.0815471 112.33 -0.95873 110.795 -0.95873 110.601C-0.95873 110.394 1.00314 110.034 3.49562 109.778C4.08208 109.723 4.66857 109.633 4.79422 109.578C5.52733 109.273 5.49939 108.374 4.74536 108.091C4.48702 107.994 1.24051 107.939 0.270062 108.015Z" fill="black"/>
<path d="M64.419 108.846C63.8746 109.06 63.8328 109.282 63.8047 112.097C63.7419 118.1 62.6178 121.122 59.9507 122.457C58.1633 123.349 53.1856 124.407 37.4068 127.243C30.4599 128.488 30.6762 128.432 30.5295 128.965C30.4109 129.408 30.5854 129.795 30.9834 129.94C32.2961 130.438 54.6936 126.731 59.1897 125.279C63.672 123.819 65.6967 120.258 65.9692 113.342C66.1016 109.925 65.5712 108.383 64.419 108.846Z" fill="black"/>
<path d="M57.5836 112.47C56.4526 112.739 55.175 113.77 54.2045 115.181C53.995 115.478 53.7996 115.755 53.7715 115.789C53.7437 115.824 53.6179 115.651 53.4993 115.416C51.9144 112.304 47.9768 114.033 45.3934 118.971C45.163 119.413 45.163 119.414 44.8281 118.909C42.957 116.087 39.4102 116.875 37.2947 120.582C37.078 120.956 37.1061 120.97 36.7918 120.326C35.7794 118.259 33.7479 117.788 32.149 119.255C30.4106 120.852 29.3215 124.649 30.4106 125.306C31.0599 125.7 31.6115 125.348 31.8278 124.393C32.2885 122.298 33.3917 120.465 34.1809 120.465C34.6835 120.465 35.2978 121.786 35.5912 123.501C35.9193 125.424 37.2875 125.52 38.0626 123.681C40.1363 118.784 42.5518 117.878 43.704 121.571C44.3461 123.646 45.4493 123.577 46.4825 121.392C47.872 118.445 49.6176 116.28 50.909 115.893C51.5445 115.706 51.9285 116.557 52.138 118.618C52.3334 120.568 53.7924 120.555 54.8328 118.59C55.8034 116.771 56.3759 115.941 57.1019 115.285C58.4146 114.095 58.8753 114.524 59.2593 117.283C59.6501 120.147 61.6261 120.492 61.7238 117.719C61.8496 114.385 59.8945 111.91 57.5836 112.47Z" fill="black"/>
<path d="M11.4203 115.796C8.9418 116.488 6.40739 120.887 8.50892 120.838C8.92781 120.831 9.08839 120.7 9.63998 119.932C10.4498 118.805 11.4203 117.982 11.937 117.975C12.2232 117.975 12.2721 118.19 12.2721 119.573C12.2721 121.018 12.3279 121.191 12.8725 121.495C13.4241 121.807 13.8988 121.675 14.7157 120.983C17.0755 118.992 18.5906 119.421 18.5906 122.076C18.5906 124.172 20.1685 124.656 20.7619 122.747C21.9556 118.964 18.2275 116.156 14.6738 118.162C14.6529 118.176 14.597 118.03 14.5551 117.837C14.1851 116.253 12.8585 115.395 11.4203 115.796Z" fill="black"/>
<path d="M25.5443 118.183C25.0208 118.342 24.9159 118.598 24.4202 120.846C22.4723 129.795 21.5648 130.853 16.88 129.664C15.8886 129.408 15.344 129.242 11.7833 128.115C8.52283 127.077 7.63613 127.036 7.34988 127.9C7.03569 128.834 7.94333 129.491 10.8757 130.473C21.1737 133.91 23.5755 133.018 25.6001 124.989C26.9687 119.546 26.9546 117.761 25.5443 118.183Z" fill="black"/>
<path d="M66.095 123.072C65.7042 123.397 65.6624 123.999 65.9904 124.621C66.7443 126.046 66.7234 125.908 66.2208 126.164C65.4457 126.551 61.8012 127.609 58.1427 128.515C55.9854 129.048 54.4005 129.393 49.7646 130.348C44.7029 131.386 41.4006 132.084 38.8383 132.665C35.1311 133.502 33.7208 133.764 29.0639 134.477C27.6605 134.691 25.5309 135.03 24.3231 135.238C23.1154 135.438 22.1171 135.597 22.1099 135.59C22.1031 135.584 22.138 135.39 22.1939 135.161C22.452 134.076 22.2635 133.384 21.6701 133.211C20.8881 132.99 20.3646 133.716 20.0921 135.431C20.0503 135.694 20.0503 135.694 19.6523 135.646C17.4461 135.376 12.2378 133.903 9.20067 132.693C8.14644 132.271 7.55995 132.015 4.27854 130.548C-0.615679 128.363 -2.39603 127.782 -2.84286 128.225C-3.42935 128.799 -2.8987 129.49 -1.3767 130.133C-1.20214 130.21 0.522336 131.005 2.46329 131.911C8.92141 134.92 11.8188 135.985 16.9155 137.236C20.0921 138.011 20.8113 138.018 24.8747 137.312C25.8521 137.14 27.5696 136.856 28.6797 136.683C34.0975 135.846 34.9145 135.694 39.0197 134.754C43.0972 133.82 44.6542 133.488 51.3008 132.153C58.6384 130.673 65.0268 128.999 67.1564 127.996C69.0624 127.104 69.3415 125.59 67.9311 123.812C67.3658 123.1 66.4862 122.747 66.095 123.072Z" fill="black"/>
</g>
</g>
<defs>
<clipPath id="clip0_59_189">
<rect width="137" height="164" fill="white"/>
</clipPath>
<clipPath id="clip1_59_189">
<rect width="83" height="112" fill="white" transform="translate(-14 26)"/>
</clipPath>
</defs>
</svg>
