<svg width="137" height="164" viewBox="0 0 137 164" fill="none" xmlns="http://www.w3.org/2000/svg">
<g clip-path="url(#clip0_59_174)">
<g clip-path="url(#clip1_59_174)">
<path d="M102.818 23.4364C100.613 24.0426 99.695 26.8716 100.862 29.4338C101.015 29.7571 101.112 30.0319 101.08 30.0562C101.047 30.0723 100.878 30.1289 100.701 30.1855C98.3024 30.9452 97.3123 33.2246 98.7935 34.5663C99.1073 34.8492 99.1073 34.8492 98.7773 35.0108C98.4071 35.1967 97.3606 35.9323 96.765 36.4334C96.4913 36.6597 96.3867 36.7163 96.4269 36.6031C96.773 35.4796 96.9018 32.6345 96.6684 31.3979C95.4287 24.8186 88.7557 26.7827 88.7397 33.7338C88.7397 34.2268 88.7155 34.631 88.6914 34.631C88.6752 34.631 88.4659 34.4693 88.2406 34.2753C84.6344 31.2039 80.1428 31.802 79.2091 35.4796C78.6939 37.5003 79.8208 39.7554 82.2598 41.5821C82.7267 41.9377 82.7267 41.9377 82.0344 42.0832C81.3502 42.2368 81.3502 42.2368 81.0604 41.9134C80.0784 40.8223 77.9453 40.208 76.3435 40.5556C76.0537 40.6121 76.0537 40.6121 76.2388 39.9655C77.6072 35.2371 75.8041 30.7997 73.019 32.0283C71.5138 32.6992 70.5639 35.8029 70.9342 38.8097C71.0066 39.3917 71.0066 39.3917 70.6847 39.1896C68.6964 37.9449 65.9677 37.2497 64.3497 37.5731C59.6649 38.5187 60.7919 43.918 65.9838 45.4133C67.1831 45.7608 68.3584 45.8336 69.8395 45.6557C70.2178 45.6072 70.2178 45.6072 70.1373 46.0437C70.0809 46.3428 70.089 46.6337 70.1534 47.0217C70.25 47.5633 70.25 47.5794 70.0649 47.7007C69.437 48.1291 68.8816 49.002 68.6723 49.883C68.5999 50.2144 68.5274 50.3437 68.455 50.3195C68.3906 50.3033 68.1088 50.2144 67.819 50.1255C63.3033 48.7272 60.5826 53.3505 64.4624 55.8076C64.9776 56.1309 65.0018 56.1714 64.7039 56.2441C62.9008 56.6805 61.3392 58.3456 61.3392 59.8085C61.3473 62.9771 66.3299 64.1892 70.6605 62.0719C71.3206 61.7564 71.3689 61.7405 71.3286 61.902C70.6847 64.4722 71.0228 67.9881 72.0853 69.7907C73.5905 72.3529 76.7057 72.1104 78.0258 69.3299C78.2351 68.8854 78.3397 68.7481 78.4363 68.7723C78.871 68.9017 79.8289 68.9664 80.2958 68.9017C80.5855 68.8612 80.8431 68.8207 80.8672 68.8207C80.8995 68.8207 80.9317 69.1037 80.9558 69.443C81.0524 71.0758 82.2196 72.2235 83.7973 72.2398C86.2363 72.2561 88.3533 69.8228 87.6691 67.8023C87.5403 67.4225 87.5564 67.2852 87.7254 67.2852C87.7817 67.2852 88.0152 67.1558 88.2486 67.0022C88.6431 66.7355 88.6833 66.7193 88.8845 66.8244C89.0133 66.8891 89.3514 67.0181 89.6573 67.1154C89.9551 67.2205 90.1724 67.3336 90.1483 67.3741C90.1241 67.4142 89.9793 67.6408 89.8263 67.875C87.0895 72.0215 92.2573 75.0525 95.96 71.4719C96.2901 71.1567 96.2901 71.1567 96.6201 72.1914C97.5377 75.085 97.8034 76.3133 97.5297 76.3701C97.417 76.3943 96.9823 76.4752 96.5637 76.5395C95.5093 76.7177 95.1873 76.9519 95.1873 77.5258C95.1873 78.31 95.5173 78.4795 97.0064 78.4795C98.1495 78.4795 98.1495 78.4795 98.3588 79.8133C99.3085 85.8994 99.5097 92.1232 99.0591 101.556C98.3829 115.676 98.5439 125.884 99.4535 126.369C100.58 126.976 100.862 125.343 101.023 117.115C101.071 114.278 101.24 110.115 101.506 104.91C101.981 95.5423 101.997 91.816 101.587 86.8857C101.369 84.3072 100.878 80.8155 100.468 78.8434C100.331 78.2048 100.283 78.2453 101.297 78.1322C102.319 78.0108 102.174 77.752 102.391 80.0316C103.229 88.5101 103.189 94.556 102.231 105.516C101.265 116.468 101.128 118.877 101.112 124.309C101.104 129.255 101.337 130.653 102.198 130.653C103.051 130.653 103.349 129.32 103.639 124.187C103.945 118.901 104.243 115.005 104.927 107.739C105.338 103.334 105.619 99.8746 105.732 97.9588C105.853 95.7201 105.861 95.6312 105.877 96.3586C105.949 99.6725 106.304 103.875 106.859 108.046C107.1 109.808 107.1 109.808 106.529 112.573C104.517 122.417 103.961 125.699 103.945 127.784C103.937 129.271 104.026 129.522 104.605 129.522C105.273 129.522 105.595 128.584 106.368 124.349C106.634 122.902 107.052 120.736 107.302 119.54C107.551 118.335 107.793 117.147 107.841 116.889C107.986 116.169 108.026 116.307 108.211 118.061C108.63 122.045 108.767 124.276 108.871 128.835C108.992 134.428 109.08 134.84 110.127 134.582C111.504 134.234 111.335 124.026 109.749 111.926C109.419 109.404 109.419 109.404 109.709 107.561C110.32 103.625 110.795 98.6621 111.125 92.6245C111.174 91.7755 111.222 90.927 111.23 90.725C111.278 89.9408 111.359 90.8865 111.648 95.4534C112.284 105.565 112.349 107.553 112.325 115.215C112.301 122.724 112.333 123.056 113.13 123.056C113.548 123.056 113.661 122.935 113.862 122.288C114.812 119.136 114.884 109.881 114.063 96.8274C113.468 87.3786 113.444 84.687 113.91 81.4703C114.264 79.0291 115.271 75.9335 115.706 75.9335C116.824 75.9335 117.066 77.8492 117.235 88.106C117.356 95.0894 117.267 97.7489 116.558 108.507C116.003 116.832 115.907 117.931 114.981 125.804C113.991 134.258 113.733 135.608 112.719 137.637C110.224 142.616 104.557 143.634 100.766 139.771C97.3445 136.303 96.451 130.201 97.4009 116.913C98.1736 106.114 98.3024 103.487 98.3829 97.3123C98.4312 93.0848 98.3024 87.1845 98.1173 85.2045C97.8838 82.6907 96.5476 82.0116 96.0244 84.1456C95.8473 84.8648 95.8554 84.6628 95.9037 95.2915C95.9359 101.321 95.8956 103.107 95.63 108.022C95.5253 109.897 95.2034 114.811 95.0665 116.67C94.8089 120.025 94.7526 121.633 94.7445 124.955C94.7445 135.43 96.9018 140.991 101.908 143.383C105.611 145.154 109.25 144.653 112.453 141.937C112.832 141.613 112.832 141.613 113.081 141.904C113.774 142.705 114.707 143.376 117.114 144.822C120.503 146.851 120.559 147.069 117.943 147.934C112.091 149.874 101.482 149.413 92.6678 146.819C90.8647 146.293 90.7601 146.237 91.1303 146.01C94.3984 144.03 97.2882 139.73 96.1371 138.575C95.6059 138.041 94.8975 138.292 94.3904 139.189C93.344 141.032 91.9031 142.381 89.3594 143.901C85.0771 146.455 87.4115 148.565 96.6362 150.496C110.634 153.414 124.584 150.836 122.073 145.792C121.614 144.879 120.752 144.184 117.605 142.212C115.037 140.603 114.257 139.843 114.595 139.278C115.85 137.136 116.543 134.59 117.235 129.603C118.716 118.966 119.03 115.506 119.754 102.445C119.891 99.915 119.891 89.7955 119.754 86.6027C119.183 73.6058 118.772 72.7974 113.105 73.6705C111.809 73.8725 111.866 73.8884 112.059 73.2903C112.236 72.749 112.252 72.741 114.377 71.6739C120.414 68.6429 129.526 66.097 134.099 66.1617C134.67 66.1696 134.67 66.1696 134.187 66.2748C131.539 66.8729 130.951 68.15 132.183 70.688C132.778 71.9164 132.859 71.9326 131.249 70.4614C129.543 68.9017 128.303 68.8045 127.611 70.1868C127.321 70.7527 127.321 70.7849 127.707 72.6843C128.07 74.527 128.214 75.7478 128.174 76.8146C128.15 77.5662 128.15 77.5663 127.401 76.9924C124.697 74.9151 122.612 74.1714 121.252 74.7858C119.779 75.4565 120.149 77.0733 121.831 77.348C122.934 77.5258 124.182 78.0834 125.961 79.1827C129.695 81.4945 131.096 80.1205 130.605 74.6484C130.516 73.638 130.476 73.6947 130.999 74.042C134.582 76.4669 136.594 74.2444 134.621 70.0332C134.066 68.8533 133.994 68.9422 135.773 68.6592C138.405 68.2389 138.88 68.15 139.475 67.9802C141.794 67.3011 142.027 65.2723 139.902 64.1975C136.972 62.7021 130.919 62.9041 124.697 64.6984C123.94 64.9167 123.312 65.0865 123.296 65.0703C123.063 64.8278 128.56 58.0708 128.987 58.0708C129.019 58.0708 129.092 58.2647 129.148 58.5072C130.074 62.6537 134.557 62.3386 134.992 58.095C135.048 57.5939 135.048 57.5939 135.757 57.9495C137.866 59.0084 139.685 58.9356 140.949 57.7394C142.969 55.8238 141.552 52.712 138.26 51.8632C137.672 51.7097 137.672 51.7097 138.26 51.2247C141.085 48.905 142.051 46.1003 140.506 44.7101C139.033 43.3683 136.135 44.2494 133.616 46.8035C132.883 47.5471 132.883 47.5471 132.786 47.151C131.563 42.3742 126.653 44.3383 127.587 49.2364C127.747 50.0689 127.747 50.0689 127.466 50.0689C126.902 50.0689 126.234 50.5377 125.92 51.1601C125.832 51.3379 125.751 51.4915 125.735 51.5076C125.727 51.5157 125.445 51.4672 125.107 51.3945C124.769 51.3298 124.125 51.249 123.666 51.2167C122.845 51.1601 122.845 51.1601 123.618 50.5781C128.094 47.2076 127.9 43.0774 123.264 43.0046C122.869 43.0046 122.555 42.9723 122.555 42.9481C122.555 42.8349 123.715 40.3535 123.884 40.1029C123.972 39.9736 124.004 39.9979 124.238 40.3535C126.057 43.1986 129.808 42.5035 129.945 39.2947C129.961 38.8663 129.993 38.5106 130.001 38.5106C130.009 38.5106 130.251 38.5995 130.533 38.7046C133.736 39.909 136.24 38.5591 136.24 35.6413C136.24 33.362 134.646 31.6404 132.086 31.1473C131.587 31.0584 131.587 31.0584 132.062 30.3148C135.419 25.1176 131.37 22.0785 126.999 26.5159C126.282 27.2514 126.081 27.405 126.041 27.2999C125.292 25.0772 123.916 23.5657 122.499 23.4041C118.957 22.9999 117.629 27.5505 120.366 30.6704C120.688 31.0342 120.688 31.0342 120.189 31.2766C116.011 33.2892 116.639 41.0001 120.889 39.8201C121.276 39.715 121.292 39.6422 120.551 41.1456C120.205 41.8488 119.803 42.7541 119.658 43.1582C119.408 43.8856 119.408 43.8856 118.748 44.2494C117.943 44.6939 116.736 45.583 116.003 46.27C115.568 46.6822 115.472 46.7469 115.504 46.5853C116.245 43.4492 115.641 38.7612 114.329 37.4356C111.882 34.9785 109.032 38.1065 108.614 43.7159C108.509 45.1708 108.582 45.0415 108.042 44.7343C107.551 44.4595 107.551 44.3544 108.195 41.5013C108.855 38.5753 109.032 37.7105 109.161 36.7324C109.298 35.7059 109.298 35.7059 109.716 35.8514C113.725 37.2659 116.953 34.0167 114.176 31.3575C113.54 30.7512 112.043 30.1047 111.27 30.1047C111.085 30.1047 111.085 30.0642 111.286 29.7813C114.071 25.8531 110.369 21.7148 107.495 25.5379C107.084 26.0795 107.117 26.0875 106.779 25.4813C105.885 23.9052 104.227 23.0484 102.818 23.4364ZM122.805 25.9825C123.578 26.7584 124.262 28.6417 124.383 30.3309C124.431 31.115 124.431 31.115 124.036 30.7755C121.678 28.7871 120.72 26.7827 121.654 25.7966C121.992 25.4409 122.314 25.4894 122.805 25.9825ZM103.889 26.031C104.565 26.3785 105.201 28.0436 105.442 30.1208C105.499 30.5815 105.475 30.5815 104.863 30.2744C103.647 29.6601 102.834 28.3992 102.834 27.1464C102.834 26.1603 103.269 25.6996 103.889 26.031ZM109.797 27.0898C109.725 27.5828 109.041 28.8841 108.493 29.5793C108.05 30.1451 108.05 30.1451 108.107 29.7813C108.276 28.7548 108.863 27.4535 109.427 26.8716C109.821 26.4674 109.886 26.5078 109.797 27.0898ZM130.975 27.1221C130.782 28.5851 129.285 30.3714 127.425 31.3656C126.741 31.7374 126.741 31.7374 126.741 31.4787C126.741 30.3309 129.873 26.8312 130.999 26.7099C131.016 26.7099 131.007 26.8958 130.975 27.1221ZM93.2151 31.018C93.6659 32.5133 93.4566 35.4715 92.6517 38.9875C92.4907 39.6907 92.4987 39.6988 92.048 38.3894C90.8567 34.9139 91.0659 31.4302 92.5309 30.4441C92.8771 30.2178 93.0059 30.3309 93.2151 31.018ZM103.076 32.3274C102.714 32.5375 101.627 32.8528 101.281 32.8528C100.943 32.8447 100.943 32.8447 101.329 32.6426C102.013 32.287 103.663 31.9879 103.076 32.3274ZM111.93 32.9255C113.121 33.2973 112.904 33.9439 111.592 33.9197C110.884 33.9035 108.799 33.1357 108.984 32.9578C109.201 32.7315 111.246 32.7154 111.93 32.9255ZM123.344 33.3943C123.747 33.5398 123.747 33.5317 123.433 34.1702C122.218 36.587 120.149 37.9772 119.931 36.5223C119.626 34.4531 121.493 32.7315 123.344 33.3943ZM131.997 33.8146C133.14 34.1864 133.905 35.3988 133.495 36.1909C133.036 37.0638 130.066 35.9403 128.439 34.2753C128.053 33.8873 128.07 33.8469 128.665 33.6529C129.1 33.5075 131.41 33.6206 131.997 33.8146ZM106.086 33.9601C105.925 34.6471 105.241 35.3745 104.428 35.7221C104.026 35.8838 104.042 35.8029 104.525 35.1806C105.209 34.2915 106.191 33.5317 106.086 33.9601ZM74.1862 34.8492C74.5967 35.8918 74.4116 38.0742 73.7596 39.7392C73.4376 40.5798 73.3732 40.3131 73.3571 38.0257C73.333 35.3988 73.7596 33.7742 74.1862 34.8492ZM83.8536 35.6089C85.6004 35.9808 87.8542 37.9206 90.0034 40.9193C90.3334 41.3719 90.5991 41.7599 90.5991 41.776C90.5991 42.0104 87.0171 41.0163 85.7211 40.4101C82.0505 38.6965 80.5775 34.9139 83.8536 35.6089ZM127.289 37.2012C127.844 38.9633 127.635 39.9009 126.814 39.3108C126.202 38.8744 125.751 36.4738 126.154 35.8191C126.266 35.6251 127.111 36.6597 127.289 37.2012ZM101.49 36.9103C101.563 37.1447 101.731 37.4437 101.86 37.5811C102.327 38.0661 101.2 39.5291 99.8156 40.2322C98.8417 40.7172 96.0486 41.6629 95.5736 41.6629C95.0424 41.6629 98.3105 38.5349 100.226 37.2174C101.458 36.3607 101.329 36.393 101.49 36.9103ZM106.505 37.4356C105.982 38.7935 105.289 41.8326 105.153 43.3683C105.024 44.7182 104.444 45.1142 103.559 44.4514C102.979 44.0311 101.522 43.2714 100.878 43.0693C100.436 42.9319 100.436 42.9319 101.087 42.6167C102.971 41.7033 104.299 40.1353 104.557 38.5106C104.605 38.252 104.645 38.2116 105.153 38.0095C105.45 37.8883 105.861 37.6781 106.054 37.5488C106.473 37.274 106.577 37.2497 106.505 37.4356ZM112.872 39.4806C113.806 41.3558 113.5 46.0114 112.188 49.8992C111.407 52.2351 110.586 44.7101 111.294 41.6629C111.769 39.6261 112.47 38.6642 112.872 39.4806ZM66.4587 40.6606C67.7949 40.887 69.759 41.6791 70.9986 42.4792C71.4011 42.746 71.4011 42.746 70.8215 42.9238C68.616 43.627 66.1931 43.239 64.9132 41.9862C63.7058 40.798 64.3014 40.2888 66.4587 40.6606ZM78.718 43.142C79.3056 43.4168 79.2976 43.53 78.71 43.4815C78.4524 43.4653 77.9211 43.4249 77.5187 43.4007C77.1243 43.3764 76.6171 43.3118 76.3917 43.2471C75.949 43.134 75.9168 43.1582 76.7942 42.9238C77.2048 42.8187 78.2753 42.94 78.718 43.142ZM73.9286 45.3001C74.5001 46.5287 74.6289 46.8843 74.7738 47.5875C74.967 48.5008 74.959 48.5089 74.5001 48.121C74.2747 47.9351 73.832 47.6441 73.51 47.4824C72.7614 47.1025 72.5119 46.3266 72.858 45.4213C72.9305 45.2435 73.011 44.9768 73.0512 44.8232C73.1156 44.5565 73.2444 44.411 73.4215 44.411C73.4698 44.411 73.6952 44.8152 73.9286 45.3001ZM90.9613 44.4919C89.8907 46.2377 84.4734 47.2804 82.2679 46.1731C80.8592 45.4618 81.4146 45.0334 84.1997 44.6939C85.9867 44.4757 91.0659 44.3221 90.9613 44.4919ZM97.8114 44.9364C99.7915 45.3405 102.561 46.6257 102.391 47.0621C102.247 47.442 102.102 48.3877 102.126 48.7999C102.223 50.1659 98.3748 47.9997 95.63 45.1384C95.0826 44.5646 95.7024 44.508 97.8114 44.9364ZM124.157 45.874C125.727 46.4236 120.656 50.1093 115.48 52.1785C114.192 52.6958 114.192 52.7039 115.078 51.5238C117.879 47.7734 122.097 45.1546 124.157 45.874ZM78.5249 46.0437C78.549 48.7999 84.8034 50.2871 89.3111 48.614C89.6895 48.4766 90.0517 48.3473 90.1161 48.323C90.2207 48.2907 90.2368 48.4928 90.2368 49.8426C90.2368 53.011 91.412 54.9832 93.3761 55.1367C94.7928 55.2499 96.2256 53.7061 96.2337 52.0492C96.2337 51.6935 96.3303 51.8552 96.8696 53.1646C97.6746 55.1287 99.0753 59.2994 98.9544 59.4044C98.6727 59.6469 98.4071 59.6792 98.3668 59.4691C97.9482 57.4646 97.0306 56.3653 95.4207 55.9612C93.4325 55.452 91.4845 57.0038 91.4845 59.0973C91.4845 59.364 91.4845 59.364 90.905 58.9195C90.2932 58.4345 88.4982 57.2948 87.9266 57.0119C87.5805 56.8503 87.5805 56.8503 87.6047 56.2683C87.6932 54.5063 86.4938 52.9787 84.4815 52.2916C83.1131 51.8228 80.4165 49.2041 78.4444 46.4075C78.1143 45.9467 78.1143 45.9467 78.3156 45.9467C78.4363 45.9467 78.5249 45.9952 78.5249 46.0437ZM138.848 46.6903C138.437 48.0402 136.521 49.7618 134.34 50.764C133.575 51.1116 133.575 51.1116 134.074 50.3841C135.427 48.4119 136.956 47.0783 138.373 46.6257C138.848 46.4721 138.912 46.4802 138.848 46.6903ZM130.468 47.0864C130.887 47.927 131.024 49.5031 130.798 50.8125C130.726 51.2409 130.661 51.2005 130.38 50.57C129.937 49.5759 129.848 49.1475 129.84 48.0887C129.84 46.5853 130.05 46.2539 130.468 47.0864ZM106.626 46.9975C107.567 47.2642 108.863 49.3172 109.427 51.443C109.563 51.9522 109.765 52.6392 109.869 52.9625C110.111 53.6657 110.159 53.6657 108.992 52.9706C105.99 51.1762 104.452 48.7029 105.507 47.3531C105.796 46.9894 106.167 46.8681 106.626 46.9975ZM93.4888 50.2871C93.7223 52.1866 93.4244 52.5341 93.1025 50.7559C92.9898 50.1335 92.9093 48.5008 92.9817 48.2826C93.0622 48.0402 93.36 49.2121 93.4888 50.2871ZM78.9112 50.5539C79.1205 50.7963 79.531 51.2571 79.8369 51.5723C80.3843 52.1461 80.3843 52.1461 79.8369 52.2836C79.1366 52.4614 77.9855 52.914 77.3416 53.2696C76.7218 53.6091 76.754 53.6172 76.754 53.1565C76.754 52.9464 76.6815 52.4452 76.6091 52.0411C76.4642 51.3056 76.4642 51.3056 76.7218 51.0146C77.0277 50.6832 77.2691 49.9638 77.3577 49.1636C77.414 48.6221 77.414 48.6221 77.9775 49.3657C78.2914 49.7779 78.71 50.3114 78.9112 50.5539ZM72.7131 49.681C74.0574 50.3599 74.8141 52.7847 74.3069 54.8134C74.0735 55.751 74.0574 55.7591 73.4376 55.0882C70.9583 52.4048 70.4432 48.5493 72.7131 49.681ZM99.695 51.2732C100.621 51.6369 101.522 51.7986 102.359 51.7339C103.068 51.6773 103.068 51.6773 103.406 52.1461C103.864 52.7766 104.943 53.8274 105.595 54.2719C106.239 54.7084 106.239 54.6599 105.668 54.9832C103.752 56.0905 102.529 58.1354 102.987 59.4529C103.108 59.7924 103.084 59.8085 102.665 59.5742C102.472 59.4691 102.118 59.3236 101.884 59.2428C101.546 59.1377 101.458 59.0649 101.418 58.8952C100.902 56.5916 99.9444 53.9971 98.6967 51.5642C98.4312 51.0308 98.1897 50.57 98.1817 50.5377C98.1656 50.4973 98.3668 50.5943 98.6244 50.7478C98.882 50.9014 99.365 51.1358 99.695 51.2732ZM128.504 52.8979C128.874 53.6819 128.89 53.8516 128.592 54.4336C128.448 54.7165 128.448 54.7165 128.391 54.3932C128.359 54.2153 128.271 53.8112 128.19 53.504C127.932 52.4937 127.908 52.1704 128.102 52.1704C128.134 52.1704 128.319 52.4937 128.504 52.8979ZM67.5212 52.4937C68.1008 52.712 69.1633 53.4151 69.2277 53.6253C69.2519 53.7061 69.5014 54.1183 69.7831 54.5386C70.2903 55.3065 70.2903 55.3065 69.5578 55.1044C66.8531 54.3608 64.5268 52.9221 65.3398 52.4856C65.863 52.2027 66.7646 52.2108 67.5212 52.4937ZM124.849 53.9648C126.073 54.3204 125.494 54.8296 123.401 55.2499C121.557 55.6217 115.085 55.1044 116.558 54.7084C119.456 53.9163 123.457 53.5606 124.849 53.9648ZM136.063 53.9567C138.026 54.1668 139.379 54.8619 139.379 55.654C139.379 56.7694 137.085 56.1471 135.209 54.5225C134.38 53.8112 134.429 53.7789 136.063 53.9567ZM82.9199 54.4417C85.8499 54.8458 86.035 57.1413 83.2257 58.2647C82.6784 58.483 82.6784 58.483 82.3162 58.3375C81.7607 58.1193 80.5372 58.1354 80.0784 58.3617C79.7001 58.5557 79.6035 58.5396 77.6796 57.8606C75.8766 57.2221 75.8524 57.1978 76.5206 56.6886C78.2431 55.3792 79.9255 54.6195 81.4951 54.4336C82.2679 54.3447 82.2437 54.3447 82.9199 54.4417ZM132.279 55.4196C132.875 57.3757 132.593 59.8085 131.917 58.5881C131.531 57.8849 131.507 56.4946 131.869 55.3469C132.038 54.7973 132.094 54.8054 132.279 55.4196ZM109.588 56.826C108.75 57.7071 107.076 58.5476 106.159 58.5557C105.297 58.5638 107.213 57.1493 108.558 56.7856C109.789 56.4542 109.942 56.4623 109.588 56.826ZM127.063 56.7209C123.811 59.6469 121.517 62.5485 119.77 65.9029C119.456 66.5089 119.456 66.5089 118.531 66.8971C117.524 67.3253 114.9 68.6108 113.959 69.1359C113.25 69.5319 113.234 69.6693 114.12 67.6083C114.474 66.784 114.876 65.8462 115.013 65.5231C115.23 65.0219 115.295 64.933 115.432 64.9734C115.52 64.9897 115.858 65.0865 116.189 65.1754C119.835 66.1938 121.71 62.1929 119.263 58.6042C119.038 58.2728 119.038 58.2728 120.414 58.2647C122.99 58.2405 125.252 57.7313 126.621 56.8745C127.031 56.6159 127.272 56.535 127.063 56.7209ZM114.176 57.4727C116.704 58.2405 119.312 62.6779 117.227 62.6779C115.609 62.6779 113.91 60.3986 113.427 57.5616C113.363 57.2059 113.307 57.214 114.176 57.4727ZM71.4413 58.1597C72.1658 58.2728 72.1738 58.3132 71.5057 58.8225C69.0667 60.6977 65.9033 61.3039 64.2612 60.2046C62.7881 59.2347 68.3342 57.6505 71.4413 58.1597ZM88.0393 59.752C89.3594 60.8189 89.2146 61.0856 87.2988 61.0936C86.4295 61.1019 86.3409 61.1178 85.8177 61.3603C85.2059 61.6595 85.1254 61.6758 85.1254 61.5222C85.1254 61.4413 84.8356 60.8108 84.4976 60.1561C84.4815 60.1318 84.6827 60.0106 84.9322 59.8974C85.4232 59.6712 86.2765 59.0892 86.526 58.8063C86.6629 58.6608 86.6951 58.6527 86.8078 58.7497C86.8802 58.8063 87.4356 59.2589 88.0393 59.752ZM94.8572 59.0003C95.2436 59.3317 95.4529 60.1884 95.5414 61.7889C95.5897 62.6374 95.5897 62.6374 95.2195 62.2414C94.5755 61.5381 94.1408 60.4632 94.1408 59.558C94.1408 58.7416 94.3501 58.58 94.8572 59.0003ZM75.0475 59.4933C76.0054 60.7946 76.7459 63.0093 76.3032 63.2438C74.806 64.0519 74.6852 66.0402 76.0456 67.4952C76.4803 67.9559 76.3998 68.2389 75.6432 68.9176C73.7515 70.6313 73.0271 64.7472 74.5082 59.7035C74.7175 59.0165 74.7014 59.0245 75.0475 59.4933ZM78.6536 61.1341C78.6617 61.5139 78.7261 62.0556 78.7985 62.3223C78.9515 62.9283 78.9515 62.9204 78.8066 62.9204C78.7342 62.9204 78.6778 62.8073 78.6456 62.6132C78.549 62.0473 78.2914 61.0856 78.1224 60.7057C78.0338 60.4956 77.9614 60.3097 77.9614 60.3016C77.9614 60.2854 78.1143 60.3097 78.3075 60.3582C78.6456 60.4309 78.6456 60.4309 78.6536 61.1341ZM82.0344 60.6977C83.0567 61.4817 83.4994 63.3085 82.9762 64.5369C82.8152 64.8925 82.8152 64.8925 82.4611 64.4317C80.7706 62.2656 80.4487 59.4853 82.0344 60.6977ZM112.22 62.2414C112.421 62.5323 112.8 62.993 113.057 63.2681C113.524 63.7689 113.524 63.7689 113.081 64.5369C111.616 67.0991 110.127 70.5908 109.395 73.2256C109.056 74.4302 109.041 74.2119 109.314 71.9648C109.668 68.9743 110.079 66.4688 110.771 63.0415C111.31 60.3905 111.238 60.5602 111.568 61.1908C111.721 61.4817 112.011 61.9584 112.22 62.2414ZM108.541 62.6859C107.656 66.4605 107.004 70.2431 106.609 73.8967C106.529 74.7131 106.497 74.81 106.344 74.8425C105.917 74.9393 104.332 75.206 104.315 75.1818C104.299 75.1656 104.194 74.802 104.082 74.3734C103.881 73.5816 103.534 72.6359 103.342 72.3287C103.261 72.2073 103.261 72.1025 103.325 71.8842C103.736 70.5503 103.084 67.9964 101.965 66.5252C101.804 66.3069 101.619 66.0644 101.563 65.9918C101.466 65.8624 101.498 65.8303 101.884 65.7088C104.074 64.9976 105.257 63.1792 104.549 61.619C104.388 61.2472 104.388 61.2472 104.903 61.4412C105.845 61.7806 107.278 61.6516 108.469 61.1178C108.711 61.013 108.92 60.9321 108.936 60.94C108.944 60.9483 108.767 61.7322 108.541 62.6859ZM101.554 61.8294C102.939 62.5485 102.061 63.4459 99.9768 63.4459C97.9724 63.4459 97.6423 63.3085 98.3265 62.7589C99.397 61.91 100.878 61.4817 101.554 61.8294ZM87.009 64.7067C87.178 65.1917 87.0171 65.2886 85.705 65.5148C84.6747 65.7009 84.9644 64.9087 86.2926 63.9146C86.7756 63.551 86.7756 63.551 86.8319 63.955C86.8641 64.1813 86.9446 64.5206 87.009 64.7067ZM90.7601 63.8419C91.4201 63.9872 92.6919 64.448 92.6919 64.5452C92.6919 64.8683 90.2207 64.4158 89.9953 64.0519C89.8102 63.7447 90.0356 63.6883 90.7601 63.8419ZM79.1205 65.6362C79.7001 65.7898 80.9397 66.3069 80.9397 66.3958C80.9397 66.5173 80.0221 66.6546 79.4908 66.6224C78.6939 66.5657 77.897 66.1454 77.6314 65.6442C77.5267 65.4584 78.4041 65.4501 79.1205 65.6362ZM99.5982 67.8508C100.532 68.9985 101.031 70.9547 100.548 71.6175C99.9365 72.4498 97.6423 67.6408 98.2058 66.7193C98.2783 66.5978 99.1717 67.3253 99.5982 67.8508ZM95.0102 67.2606C94.6479 68.6187 93.6659 69.8554 92.7483 70.0979C91.6294 70.405 93.6337 67.4872 94.8653 67.0181C95.0826 66.9376 95.0987 66.9618 95.0102 67.2606ZM84.7149 68.0123C85.6164 68.4731 85.4394 69.1847 84.3446 69.516C83.7087 69.7097 83.5155 69.5561 83.5155 68.837C83.5155 67.7377 83.8053 67.5436 84.7149 68.0123ZM101.788 74.8909C101.9 75.6831 101.989 75.6021 100.806 75.8041C99.8156 75.974 99.8156 75.974 99.5982 75.1656C99.3488 74.2444 99.3409 74.2766 99.7512 74.3897C100.17 74.5111 100.959 74.4869 101.305 74.3575C101.458 74.3008 101.611 74.2444 101.635 74.2444C101.667 74.2361 101.731 74.527 101.788 74.8909ZM112.848 76.5558C112.188 78.1076 111.56 80.7508 111.391 82.7228C111.27 84.1778 111.198 82.7875 111.238 79.9344C111.294 76.2486 111.222 76.5479 112.035 76.3943C113.041 76.2082 113.001 76.2002 112.848 76.5558ZM106.263 78.0512C106.191 78.9807 106.062 82.0359 105.973 84.8973C105.933 86.328 105.885 87.5242 105.869 87.5401C105.853 87.5564 105.813 87.0309 105.78 86.3765C105.684 84.2103 105.306 80.5972 104.943 78.4795C104.806 77.6714 104.806 77.6714 105.33 77.5825C106.36 77.4047 106.32 77.3805 106.263 78.0512ZM108.815 88.1787C108.815 90.45 108.775 92.8023 108.726 93.5539C108.678 94.2893 108.59 95.6149 108.533 96.5039C108.38 98.832 108.34 93.4162 108.461 87.6536C108.614 80.4599 108.815 80.7508 108.815 88.1787Z" fill="black"/>
<path d="M84.3999 72.9438C76.8817 73.5661 72.1808 75.8779 73.4446 78.3429C73.7343 78.9005 74.8774 79.7331 75.3684 79.7331C75.5857 79.7331 75.4408 79.8788 75.0867 80.0161C68.5907 82.4652 64.2601 88.9231 66.5462 92.7462C67.9065 95.0096 70.6675 94.6135 74.3783 91.6227C75.3362 90.8551 75.2799 90.8305 75.0706 91.9136C73.7666 98.8164 74.2898 102.834 76.5758 103.529C78.7572 104.2 80.3027 101.799 82.8947 93.7241C83.5628 91.631 83.5628 91.631 83.7962 92.326C85.2048 96.6987 88.473 96.634 89.5918 92.2128C89.8816 91.0329 90.0184 89.6264 90.115 86.838C90.276 81.8183 90.6624 80.4122 92.2723 79.0382C94.1317 77.4459 93.1175 75.8132 90.9522 76.8963C88.3522 78.2056 87.5795 80.2749 87.4587 86.2399C87.3782 90.3213 87.1368 92.4553 86.7423 92.6978C86.5008 92.8514 85.9293 90.7579 85.6073 88.5029C85.2934 86.3125 84.899 85.7144 83.7881 85.7144C82.6854 85.7144 82.2346 86.4498 81.0191 90.2408C80.6167 91.5096 79.9968 93.4332 79.6427 94.5246C78.5158 98.0322 77.5337 100.271 77.4371 99.5844C77.2359 98.2747 77.4935 94.6215 78.0408 90.871C78.6687 86.5629 77.4774 85.5771 74.5393 87.9774C71.8508 90.1761 70.4663 91.073 69.4762 91.2508C68.5022 91.4369 69.0013 88.8827 70.2972 87.0479C71.8588 84.8334 74.3461 83.2895 79.0068 81.6405C82.2346 80.5011 82.0817 78.4238 78.725 77.6722C77.4452 77.3812 77.4613 77.3892 77.8396 77.2519C80.182 76.395 85.4705 75.6271 89.4872 75.5707C91.8698 75.5302 92.3367 75.2794 92.0389 74.1884C91.7571 73.17 88.3603 72.6204 84.3999 72.9438Z" fill="black"/>
<path d="M96.8862 144.556C94.729 146.73 104.557 148.533 110.683 147.086C113.871 146.334 113.468 144.605 110.224 145.138C107.262 145.623 101.354 145.292 98.3432 144.475C97.498 144.241 97.1841 144.257 96.8862 144.556Z" fill="black"/>
</g>
</g>
<defs>
<clipPath id="clip0_59_174">
<rect width="137" height="164" fill="white"/>
</clipPath>
<clipPath id="clip1_59_174">
<rect width="81" height="129" fill="white" transform="translate(61 23)"/>
</clipPath>
</defs>
</svg>
