<svg width="137" height="164" viewBox="0 0 137 164" fill="none" xmlns="http://www.w3.org/2000/svg">
<g clip-path="url(#clip0_59_123)">
<g clip-path="url(#clip1_59_123)">
<path d="M111.485 14.5409C110.191 15.8494 106.258 23.3425 106.014 24.9831C105.791 26.4927 107.396 27.3872 108.681 26.4578C109.368 25.9532 114.157 17.0739 114.369 15.8879C114.774 13.7025 113.102 12.9234 111.485 14.5409Z" fill="black"/>
<path d="M100.003 28.15C96.6471 29.8291 94.5413 32.8462 95.0093 35.272C95.48 37.6553 98.3094 37.4973 98.596 35.0787C99.1513 30.5388 106.644 28.3242 108.221 32.2374C109.522 35.4302 112.533 34.0246 111.407 30.7572C110.107 26.9929 104.763 25.7748 100.003 28.15Z" fill="black"/>
<path d="M101.442 31.753C100.634 32.485 101.039 33.8405 102.193 34.2982C104.247 35.1004 105.972 34.3042 105.558 32.7563C105.258 31.6375 102.353 30.9376 101.442 31.753Z" fill="black"/>
<path d="M92.7723 38.8955C80.3168 42.6199 69.7301 46.764 68.8728 48.2482C67.6153 50.4249 69.4362 51.4988 72.2967 50.2592C74.3465 49.3759 78.2321 47.9037 81.6261 46.7303C91.2724 43.3955 103.834 39.9633 114.167 37.8388C118.841 36.8664 120.85 35.1019 118.497 34.0172C116.308 33.0277 105.615 35.0537 92.7723 38.8955Z" fill="black"/>
<path d="M119.563 37.6345C118.833 38.0811 118.324 39.3046 116.92 43.9042C110.024 66.5214 103.499 76.4649 96.4719 75.0559C92.1391 74.1803 85.7761 69.2619 74.5635 58.0998C72.8566 56.4099 70.837 54.3855 70.0469 53.6211C67.825 51.4139 66.0918 51.2923 66.0243 53.3317C65.9519 55.6652 80.2203 70.2751 87.5696 75.3895C99.2948 83.5708 107.409 79.2518 115.258 60.6595C118.109 53.916 122.026 41.3665 121.943 39.2839C121.871 37.5048 120.909 36.8283 119.563 37.6345Z" fill="black"/>
<path d="M90.0398 47.4346C74.4027 52.3452 73.0455 55.3989 82.8647 63.4907C97.5948 75.6071 104.431 73.8051 111.117 56.0258C114.93 45.8464 110.052 42.6214 95.8389 45.9242C92.3083 46.7438 91.8921 46.8552 90.0398 47.4346Z" fill="black"/>
<path d="M94.3997 81.6896C93.3042 83.586 95.5108 87.0382 98.5114 88.1447C102.807 89.7132 108.256 87.9896 109.635 84.6512C110.815 81.7704 108.754 77.4569 106.478 78.0663C105.177 78.4145 104.952 79.1858 105.52 81.3616C106.019 83.2774 105.964 83.4873 104.701 84.188C102.096 85.652 98.6973 84.7772 97.4156 82.3322C96.5857 80.742 95.1237 80.4364 94.3997 81.6896Z" fill="black"/>
<path d="M102.846 90.4844C101.932 91.7045 105.628 107.597 110.132 121.768C113.764 133.202 114.099 133.88 115.842 133.413C117.858 132.873 117.521 131.039 112.454 114.454C110.317 107.513 108.242 100.54 107.564 98.0596C105.477 90.4207 104.303 88.533 102.846 90.4844Z" fill="black"/>
<path d="M103.298 128.211C94.0267 133.104 91.8986 141.09 99.1692 143.619C107.396 146.491 126.513 142.447 135.561 135.941C144.655 129.394 136.394 120.927 123.629 123.703C120.257 124.438 118.886 125.516 119.647 126.846C120.02 127.513 121.666 127.672 124.95 127.336C131.508 126.682 136.78 128.463 135.323 130.832C133.434 133.931 121.817 138.755 113.474 139.929C105.588 141.036 99.528 140.428 99.0091 138.49C98.5774 136.877 101.664 133.095 105.435 130.622C107.509 129.258 107.853 128.72 107.285 127.743C106.754 126.853 105.633 126.987 103.298 128.211Z" fill="black"/>
<path d="M110.261 133.808C109.027 135.449 111.597 137.758 114.993 138.048C119.261 138.425 123.277 135.356 121.941 132.759C121.364 131.645 119.948 131.773 118.64 133.029C117.026 134.605 114.691 134.839 112.708 133.627C111.678 133.01 110.804 133.077 110.261 133.808Z" fill="black"/>
</g>
</g>
<defs>
<clipPath id="clip0_59_123">
<rect width="137" height="164" fill="white"/>
</clipPath>
<clipPath id="clip1_59_123">
<rect width="57.9848" height="126.684" fill="white" transform="translate(59 27.9932) rotate(-14.9853)"/>
</clipPath>
</defs>
</svg>
