<svg width="149" height="104" viewBox="0 0 149 104" fill="none" xmlns="http://www.w3.org/2000/svg">
<path d="M87.2553 27.6564C87.9659 29.3797 89.1817 30.7004 90.6689 31.7634C93.1531 33.5394 95.2284 35.6861 96.8173 38.2956C97.0718 38.7133 97.3432 39.1272 97.5392 39.5731C97.6372 39.7969 97.5863 40.0886 97.6033 40.3482C97.4016 40.1958 97.149 40.0791 97.0077 39.8835C93.3473 34.8226 88.1601 31.8236 82.6506 29.2574C82.4734 29.1746 82.2717 29.1483 82.0814 29.0956C82.1907 29.2913 82.2567 29.534 82.415 29.6751C85.5891 32.5367 88.7161 35.4547 91.9826 38.2072C93.4773 39.4677 94.2068 41.2023 95.3641 42.6604C95.4187 42.7281 95.3528 42.8899 95.3433 43.0085C95.2265 42.9784 95.0776 42.984 94.9984 42.9125C94.0654 42.0678 93.1984 41.1384 92.2069 40.3689C88.5936 37.5675 84.7202 35.2007 80.4057 33.6166C79.8836 33.4247 79.337 33.2798 78.7885 33.1895C78.568 33.1538 78.3135 33.3212 78.0741 33.3946C78.1722 33.5752 78.2287 33.7991 78.3719 33.9289C79.3634 34.8169 80.3247 35.752 81.3877 36.5459C84.1359 38.5947 86.9481 40.5551 89.7 42.6002C90.7047 43.3452 91.6113 44.222 92.55 45.0535C92.6329 45.1269 92.6178 45.3113 92.648 45.4449C92.4746 45.4806 92.2484 45.6029 92.1334 45.537C90.4314 44.5606 88.7406 43.5691 87.0574 42.5626C84.8503 41.2418 82.4112 40.6718 79.8968 40.3595C79.6725 40.3313 79.4256 40.4799 79.1881 40.5476C79.3144 40.7075 79.4105 40.9164 79.5726 41.0217C80.2776 41.4789 80.9881 41.9285 81.7195 42.3406C85.0764 44.2276 88.4522 46.0808 91.7979 47.9866C94.7025 49.6403 97.1679 51.7701 98.7889 54.7558C98.9887 55.1246 99.2318 55.4783 99.3732 55.8696C99.5296 56.3061 99.59 56.7783 99.6917 57.2336C99.3487 56.942 98.9265 56.7049 98.6739 56.3494C95.6883 52.1689 91.5133 49.5745 86.9896 47.362C84.2999 46.0469 81.7327 44.4722 79.1523 42.9464C78.5114 42.5663 77.9215 41.9963 77.4917 41.3848C76.7566 40.3369 77.2278 39.2607 78.4813 39.0274C79.222 38.8901 79.9911 38.9089 80.7469 38.8581C80.0664 38.2768 79.3841 37.6992 78.7056 37.116C77.8555 36.386 76.9677 35.6955 76.178 34.9072C75.7444 34.4745 75.3825 33.912 75.1545 33.34C74.6757 32.1378 75.3448 31.0316 76.6774 30.9808C77.7028 30.9413 78.7452 31.1971 79.7724 31.3683C80.4547 31.4812 81.1239 31.675 81.7986 31.8312C81.8175 31.8876 81.8269 31.9516 81.859 32.0005C81.8778 32.0287 81.9306 32.0362 81.9683 32.0532L81.7515 31.8782C80.8958 31.0861 80.0269 30.3053 79.1881 29.4964C78.7904 29.1144 78.3927 28.7099 78.0986 28.2509C77.765 27.7335 77.4729 27.1578 77.9629 26.5313C78.4134 25.9575 79.0279 25.8295 79.6424 26.029C80.6922 26.3676 81.7006 26.8304 82.7373 27.2123C83.2462 27.3986 83.7778 27.519 84.2999 27.6695C84.413 27.726 84.5261 27.7824 84.641 27.8389C84.5317 27.7786 84.4224 27.7184 84.3131 27.6582C83.9908 27.1277 83.6741 26.5915 83.3442 26.0647C83.0182 25.5417 82.8711 24.949 83.3782 24.5427C83.7721 24.2266 84.3658 23.9707 84.8521 24.0027C85.4515 24.0422 86.0471 24.3715 86.6164 24.6367C92.2031 27.2556 97.1773 30.6534 101.105 35.5149C103.529 38.5157 105.665 41.7065 107.936 44.8033C110.526 48.3365 113.187 51.9018 116.552 54.8104C118.461 56.4604 120.395 58.0784 122.331 59.6964C122.804 60.0914 123.03 60.3116 123.735 59.6004C125.669 57.6475 127.463 55.3993 130.447 54.8254C132.264 54.4755 134.049 54.3212 135.832 54.8875C138.079 55.6006 139.287 57.1828 139.519 59.4969C139.738 61.6737 139.572 63.826 138.997 65.9463C138.65 67.2219 138.65 67.3009 139.887 67.7393C142.256 68.5802 144.655 69.3347 147.045 70.1192C147.577 70.2942 148.124 70.4202 148.648 70.6121C148.795 70.6667 148.885 70.8774 149 71.0185C148.83 71.1088 148.653 71.2857 148.491 71.2725C146.19 71.1013 143.89 70.8962 141.687 70.1343C141.159 69.9518 140.62 69.7975 140.094 69.6094C137.9 68.823 137.996 68.8756 136.869 70.7777C135.555 72.9959 134.079 75.1218 132.615 77.2478C131.955 78.2054 131.919 78.1339 132.749 79.0972C134.253 80.8469 135.719 82.6286 137.195 84.4046C137.417 84.6717 137.64 84.9577 137.777 85.2719C137.868 85.4807 137.806 85.7535 137.813 86C137.63 85.9285 137.404 85.9022 137.272 85.7761C136.456 85.0066 135.683 84.192 134.854 83.4376C133.663 82.352 132.423 81.321 131.231 80.2336C130.653 79.7049 130.202 79.7482 129.599 80.2411C128.138 81.4395 126.659 82.6191 125.109 83.6991C123.822 84.5984 122.348 85.0612 120.738 84.89C119.3 84.7376 118.241 84.034 117.662 82.6906C117.594 82.5345 117.626 82.2485 117.734 82.1319C117.82 82.0359 118.133 82.0265 118.267 82.1074C120.243 83.304 122.088 82.6436 123.807 81.6088C129.505 78.1753 133.489 73.3025 136.109 67.1918C137.095 64.8946 137.821 62.6332 137.757 60.1441C137.696 57.7755 136.865 56.72 134.59 56.0747C132.92 55.6006 131.265 55.7849 129.631 56.2741C129.503 56.3117 129.384 56.387 129.262 56.4434C129.426 56.5018 129.586 56.5657 129.752 56.6146C129.816 56.6335 129.891 56.6146 129.961 56.6184C133.393 56.7934 134.605 58.052 134.5 61.4479C134.441 63.3444 134.098 65.1938 133.118 66.8663C131.527 69.5793 130.091 72.4013 128.285 74.9638C126.934 76.8828 125.162 78.5271 123.451 80.1602C122.834 80.7472 121.879 81.114 121.019 81.2796C119.719 81.5298 118.452 80.6249 117.984 79.2063C117.728 78.4274 117.596 77.5601 117.645 76.7473C117.681 76.1472 118.098 75.5696 118.346 74.9826C118.535 75.4812 118.723 75.9797 118.914 76.4783C119.04 76.8038 119.153 77.1368 119.302 77.4529C119.911 78.7397 120.416 78.9203 121.558 78.0963C122.404 77.4848 123.155 76.7361 123.927 76.0287C124.468 75.5339 124.431 75.1011 123.752 74.7267C121.973 73.7484 120.239 72.6873 118.431 71.7636C112.777 68.8756 106.734 67.1673 100.531 65.9275C95.4583 64.9134 90.3522 63.9897 85.4968 62.144C83.8136 61.5044 82.1794 60.6446 80.6715 59.6587C79.2371 58.7199 78.8017 57.4255 79.3144 56.4585C80.0137 55.1434 81.2973 55.2657 82.4715 55.4294C83.4291 55.5629 84.3885 55.8564 85.2875 56.2233C89.0252 57.751 92.7252 57.9278 96.4196 56.0991C96.5459 56.0371 96.7872 56.1217 96.9304 56.2101C96.9945 56.2497 97.0115 56.5187 96.9474 56.5939C96.5892 57.006 96.265 57.6118 95.8108 57.7435C94.0824 58.2402 92.3634 58.893 90.486 58.5205C88.2298 58.0746 85.9661 57.6663 83.6967 57.3013C83.0219 57.1922 82.317 57.2807 81.6252 57.2807C82.1945 57.7566 82.6883 58.4433 83.3442 58.671C86.0453 59.6098 88.7519 60.5957 91.534 61.2203C97.3979 62.5354 103.36 63.4365 109.19 64.8739C114.942 66.2925 120.244 68.8794 125.04 72.3957C126.236 73.2743 126.376 73.2085 127.156 72.0514C128.33 70.313 129.418 68.5163 130.56 66.7553C130.92 66.2022 130.741 65.8823 130.187 65.6679C128.621 65.0621 127.013 64.5484 125.501 63.8298C123.679 62.9624 121.831 62.0763 120.18 60.9305C114.776 57.1809 110.285 52.4511 106.31 47.2604C104.018 44.2671 101.95 41.0876 99.9462 37.8892C96.9587 33.1199 92.4991 30.1925 87.6663 27.6808C87.5569 27.6244 87.3929 27.6695 87.2535 27.6676C87.1536 27.6131 87.0556 27.5585 86.9557 27.504C87.0574 27.5566 87.1592 27.6074 87.261 27.6601L87.2553 27.6564ZM129.85 58.306C129.639 58.3154 129.412 58.2778 129.222 58.3418C127.906 58.7839 126.532 59.1206 125.305 59.7434C124.22 60.2965 124.331 61.0961 125.449 61.6229C126.777 62.2475 128.125 62.8326 129.478 63.4046C131.904 64.428 132.083 64.3114 132.315 61.668C132.34 61.3896 132.36 61.1093 132.358 60.8289C132.345 58.8779 131.785 58.3173 129.85 58.306Z" fill="black"/>
<path d="M52.2892 23.9049C54.5681 21.7563 56.8075 19.5477 59.6269 18.0878C60.481 17.6461 61.4121 17.3223 62.3394 17.0547C63.0602 16.8469 63.6965 17.1164 64.147 17.7659C64.5919 18.4079 64.3141 19.0199 63.9743 19.514C63.4656 20.2515 62.8668 20.9477 62.2061 21.5541C60.2595 23.3472 58.2491 25.0728 56.2988 26.8621C55.7563 27.36 55.3339 27.987 54.8553 28.5541C54.8027 28.5916 54.752 28.6309 54.6995 28.6683C54.737 28.6159 54.7764 28.5653 54.814 28.5129C57.2599 27.9683 59.7001 27.3563 62.2324 27.9908C62.8706 28.1517 63.2197 27.9365 63.4469 27.2477C64.1283 25.1851 64.5581 24.9662 66.6305 25.3798C67.7211 25.5969 68.8173 25.799 69.8985 26.0592C72.1717 26.6076 72.5922 27.7156 71.2013 29.6453C70.595 30.4857 69.8385 31.2231 69.1158 31.9736C68.7291 32.376 68.654 32.683 68.9281 33.2389C70.7076 36.8605 69.7071 39.9693 66.0823 41.6538C64.819 42.2397 63.9068 42.934 63.2404 44.1581C62.4539 45.603 61.0929 46.5463 59.625 47.222C57.4157 48.2402 55.1931 49.2677 52.8899 50.0351C49.4416 51.1824 46.0027 52.2886 43.0913 54.5682C42.9468 54.6805 42.7234 54.6918 42.5357 54.7498C42.5582 54.5121 42.4925 54.207 42.6183 54.0498C44.6962 51.4183 47.2416 49.5129 50.5397 48.5527C53.3385 47.7386 56.0942 46.726 58.7822 45.5993C60.0981 45.0471 61.2431 44.0683 62.4126 43.2129C62.8499 42.8929 62.7242 42.5784 62.1535 42.3613C61.1868 41.9945 60.374 42.0618 59.3998 42.511C57.0684 43.5835 54.6807 44.5624 52.2498 45.3822C51.1667 45.7471 49.9147 45.7677 48.7508 45.7134C47.0239 45.6311 46.151 44.3191 46.6672 42.687C46.9357 41.8372 47.3317 41.0081 47.7916 40.2445C49.0943 38.0771 50.8138 36.2466 52.7228 34.6052C54.5737 33.0143 56.7718 32.5295 59.1651 32.7691C59.6776 32.8196 59.9122 33.0742 59.8728 33.5833C57.3593 33.2557 55.0861 33.9164 53.3817 35.7375C51.7768 37.452 50.4027 39.3929 49.0493 41.3188C48.5744 41.9926 47.694 42.9958 48.4524 43.6995C48.9517 44.1618 50.2037 44.0814 51.0297 43.883C53.8641 43.2017 56.6554 42.3463 59.473 41.5921C60.0418 41.4405 60.0962 41.2795 59.8109 40.7742C58.9117 39.1795 58.7709 37.5025 59.3341 35.7469C59.5631 35.03 59.6663 34.2739 59.8278 33.5365C60.3515 32.9843 60.8189 32.3592 61.4158 31.9025C61.8888 31.5413 62.5064 31.341 63.0902 31.1707C63.2704 31.1183 63.5501 31.4009 63.7847 31.5319C63.6027 31.6517 63.3962 31.7453 63.2441 31.895C62.6641 32.4677 61.9733 32.9806 61.5566 33.6581C60.6481 35.1367 60.5317 36.825 60.7607 38.5038C60.9822 40.1228 61.8738 40.7685 63.5182 40.6787C65.7689 40.557 67.7793 38.7659 68.2673 36.4469L68.2185 36.5068C69.1984 34.2065 68.4963 32.4378 66.3057 31.9081C65.3033 31.6667 64.4774 31.3335 63.9931 30.3472C63.873 30.1038 63.4675 29.9129 63.1634 29.8624C62.1348 29.6846 61.0948 29.5592 60.0549 29.4525C56.7605 29.1175 53.851 30.0252 51.3206 32.1627C51.1742 32.2862 50.9077 32.2694 50.6993 32.3199C50.7256 32.1196 50.7275 31.9137 50.7875 31.7247C50.8269 31.6012 50.9302 31.4739 51.0372 31.3953C53.1546 29.868 54.2189 27.4236 56.0942 25.6662C57.9732 23.9031 59.6813 21.9584 61.4646 20.0942C61.5134 20.0437 61.5697 19.9988 61.6073 19.9426C61.8945 19.5253 62.176 19.106 62.4614 18.6868C62.0052 18.8178 61.5097 18.8739 61.1004 19.0929C57.4401 21.0376 54.0744 23.3827 51.3732 26.5627C50.8157 27.2196 50.2375 27.7325 49.4003 27.9533C49.1863 28.0095 48.9967 28.1536 48.7959 28.2584C48.8484 28.0712 48.8729 27.8672 48.9592 27.6969C50.0686 25.5295 51.1967 23.3715 52.3024 21.2023C53.1527 19.5309 53.9918 17.852 54.8008 16.16C54.9679 15.8119 54.9848 15.3926 55.0692 15.0052C54.6694 15.1999 54.1607 15.3009 53.8923 15.6079C52.9819 16.6504 52.0546 17.7041 51.3169 18.8683C49.3797 21.9228 47.542 25.0392 45.6611 28.1293C45.4077 28.5448 45.1749 28.9771 44.8689 29.3514C44.7319 29.5199 44.441 29.5611 44.2195 29.6603C44.2157 29.4787 44.1669 29.2822 44.2157 29.1156C45.021 26.4148 45.8432 23.7178 46.6522 21.017C46.731 20.7531 46.8061 20.4742 46.8005 20.2028C46.7967 19.9745 46.6747 19.7499 46.6034 19.5234C46.4495 19.6581 46.2561 19.7667 46.1473 19.9314C44.4053 22.563 43.0819 25.4116 42.3555 28.4624C41.2705 33.0087 39.3126 37.0814 36.4613 40.776C35.6222 41.8616 35.0328 43.1399 34.3308 44.3303C34.8826 45.4514 35.4308 46.5744 35.9883 47.6937C36.6697 49.0637 37.3266 50.4487 38.055 51.7945C38.6481 52.8912 39.2714 53.9843 39.994 54.9969C41.0021 56.4081 41.034 56.7394 39.7857 58.0083C39.1493 58.6541 38.4942 59.2867 37.8091 59.8781C37.2516 60.3591 37.1277 60.8289 37.4543 61.5214C37.9273 62.5246 38.3028 63.5746 38.6801 64.619C38.7138 64.7145 38.406 65.0607 38.3497 65.0401C37.5313 64.7388 37.2009 65.422 36.7973 65.8319C32.448 70.2639 28.1043 74.7035 23.7907 79.1711C20.1078 82.9856 16.4699 86.8412 12.802 90.6687C12.6481 90.8297 12.389 90.8914 12.1788 91C12.2764 90.7679 12.3271 90.4984 12.4791 90.3094C18.1387 83.227 23.8508 76.1877 30.3925 69.8821C32.3973 67.9506 34.556 66.1762 36.6715 64.3626C37.1296 63.9696 37.1258 63.7188 36.8968 63.1573C35.9151 60.7484 34.0548 58.9161 32.7727 56.6963C30.6009 52.9399 28.8984 49.0019 27.4304 44.9423C26.8335 43.2915 26.811 43.2897 25.3299 44.2217C20.1735 47.4691 15.4788 51.3153 10.9812 55.3936C7.46908 58.5792 4.09589 61.9164 0.645731 65.173C0.497438 65.3115 0.217747 65.3115 0 65.377C0.0525595 65.1225 0.0206483 64.7968 0.168941 64.6228C1.16382 63.4549 2.17183 62.2982 3.21927 61.1771C9.66157 54.2838 16.4417 47.7629 24.275 42.4231C24.8494 42.0319 25.4407 41.6463 26.0639 41.345C27.3873 40.7049 28.1606 41.0006 28.7594 42.2995C29.0673 42.9677 29.3658 43.6415 29.668 44.3116C30.3137 43.9185 30.9519 43.5105 31.607 43.1343C32.0238 42.8947 32.6282 42.4006 32.8704 42.5316C34.2932 43.3046 34.4847 42.0918 35.0065 41.3637C38.2183 36.883 40.1667 31.88 41.3812 26.5346C42.0664 23.5231 43.6188 20.8597 45.2932 18.29C45.7343 17.6124 46.2224 16.7084 47.2135 16.9648C48.3867 17.2699 48.0882 18.3723 48.152 19.2464C48.1971 19.8753 48.2834 20.5023 48.3529 21.1311C48.6664 20.5977 49.0211 20.083 49.2858 19.5271C50.2206 17.5619 51.2793 15.6771 53.01 14.2959C53.6483 13.7849 54.3897 13.3095 55.1631 13.083C56.2406 12.7667 56.9708 13.3787 56.9126 14.5017C56.875 15.241 56.6892 16.0346 56.3457 16.6841C55.4053 18.464 54.3334 20.1747 53.3385 21.9266C52.9669 22.5835 52.6646 23.2798 52.3305 23.9573C52.2742 23.9779 52.2123 23.9892 52.1635 24.021C52.1353 24.0397 52.124 24.0865 52.1053 24.1202C52.1653 24.049 52.2235 23.9798 52.2836 23.9087L52.2892 23.9049ZM38.7551 56.4062C38.6632 56.2527 38.5543 56.0862 38.4604 55.9102C37.6702 54.4428 36.8555 52.9886 36.1028 51.5025C35.0028 49.3314 33.9572 47.1359 32.8685 44.9592C32.7258 44.6747 32.3654 44.1937 32.2922 44.2255C31.5958 44.5324 30.8599 44.8431 30.3118 45.3429C30.0903 45.545 30.1936 46.2525 30.3287 46.6736C31.6971 50.956 34.3833 54.5813 36.3186 58.5829C36.4782 58.9142 36.6528 58.9947 36.9081 58.7046C37.4599 58.0776 38.0062 57.445 38.5468 56.8067C38.6331 56.7038 38.6744 56.5634 38.7533 56.4062H38.7551ZM66.4503 27.7867C65.5736 27.6726 65.3991 27.8111 65.3334 28.6028C65.1776 30.5025 65.4347 30.7907 67.3062 31.1089C67.8168 31.195 68.0721 31.3204 68.3199 30.6616C69.3298 27.9776 69.3636 28.5953 66.9759 27.9252C66.7769 27.8691 66.576 27.8204 66.4484 27.7867H66.4503Z" fill="black"/>
<path d="M68 36.8815C67.3701 37.6654 66.8038 38.5295 66.0927 39.2161C65.1329 40.1412 63.8802 40.2232 63.0175 39.59C61.9959 38.8385 61.8618 37.7036 62.1035 36.563C62.3523 35.3861 62.8481 34.276 63.9191 33.6733C64.0867 33.5798 64.3866 33.763 64.6248 33.8164C64.5789 34.0052 64.5666 34.2131 64.4836 34.3829C64.122 35.121 63.6914 35.8229 63.3827 36.584C63.118 37.2363 63.2945 37.9687 63.8838 38.2205C64.2508 38.3788 64.8894 38.1728 65.2547 37.8962C66.6326 36.8491 66.7403 35.7771 65.791 34.0567C65.6128 33.7324 65.5193 33.3548 65.387 33C65.724 33.1698 66.0804 33.3071 66.3962 33.515C67.5801 34.297 68.0071 35.4949 67.9541 36.9426L68 36.8815Z" fill="black"/>
<path d="M68 22.7497C68.3257 21.9097 68.6258 21.0516 68.9992 20.2418C69.0776 20.073 69.5346 19.9344 69.6318 20.0328C69.8279 20.2318 70.0547 20.6719 69.9882 20.8949C69.7 21.8575 69.3215 22.7859 68.9429 23.7062C68.8798 23.8609 68.6428 24.0217 68.5115 23.9976C68.4007 23.9775 68.2916 23.7022 68.2438 23.5193C68.191 23.3123 68.2114 23.0813 68.1995 22.8602C68.133 22.824 68.0665 22.7859 68 22.7497Z" fill="black"/>
<path d="M71.1135 24.998C71.0741 24.7788 70.9592 24.5272 71.015 24.373C71.3073 23.5634 71.5897 22.7294 71.9887 22.001C72.2088 21.5992 72.3172 20.6881 72.9378 21.1082C73.0791 21.2035 72.9625 22.2242 72.7605 22.6807C72.4206 23.4477 71.9214 24.1092 71.4748 24.8011C71.4091 24.9026 71.2597 24.9229 71.1119 25L71.1135 24.998Z" fill="black"/>
<path d="M65.0058 22.8861C65.0058 22.517 64.9927 22.4529 65.0058 22.3923C65.1275 21.8587 64.7724 20.9631 66.0646 21.0012C67.531 21.0462 66.8865 21.8553 66.6827 22.3871C66.6597 22.4495 66.6564 22.5136 66.6136 22.5725C66.2553 23.0506 66.949 23.754 65.5089 24C65.2952 23.5322 65.0848 23.0645 65.0026 22.8861H65.0058Z" fill="black"/>
<path d="M68.2413 28.3611C69.0418 28.2995 69.7673 28.1578 70.4759 28.2119C71.2951 28.2753 71.7132 29.2619 71.1452 29.8326C70.2266 30.7557 69.1786 31.5689 67.797 31.6659C66.6403 31.7479 65.9861 30.974 66.3423 29.8904C66.5804 29.1649 66.9853 28.4823 67.3977 27.8333C67.5008 27.671 67.9264 27.7139 68.2038 27.6636C68.2151 27.8967 68.2282 28.1298 68.2394 28.3611H68.2413Z" fill="black"/>
<path d="M52.4997 17.8461C52.0311 18.7712 52.6984 19.478 52.8128 20.3434C51.7742 20.2166 51.568 19.3736 51.2737 18.7413C51.03 18.2173 50.6138 17.641 50.9419 16.9789C51.2325 16.3914 51.7367 16.1098 52.3554 16.2646C53.2027 16.4772 54.0238 16.798 54.9349 17.0983C54.9293 17.1001 55.068 17.0964 55.1074 17.0311C55.4148 16.5201 55.7448 15.9923 56.4478 16.3113C56.9896 16.5593 56.8021 17.1225 56.7777 17.5645C56.7327 18.4001 56.5209 18.7246 55.8479 18.7544C55.2442 18.7805 54.6162 18.6779 54.0313 18.5194C53.5008 18.3758 53.0134 18.0774 52.5016 17.8461H52.4997Z" fill="black"/>
<path d="M87.2553 27.6564C87.9659 29.3797 89.1817 30.7004 90.6689 31.7634C93.1531 33.5394 95.2284 35.6861 96.8173 38.2956C97.0718 38.7133 97.3432 39.1272 97.5392 39.5731C97.6372 39.7969 97.5863 40.0886 97.6033 40.3482C97.4016 40.1958 97.149 40.0791 97.0077 39.8835C93.3473 34.8226 88.1601 31.8236 82.6506 29.2574C82.4734 29.1746 82.2717 29.1483 82.0814 29.0956C82.1907 29.2913 82.2567 29.534 82.415 29.6751C85.5891 32.5367 88.7161 35.4547 91.9826 38.2072C93.4773 39.4677 94.2068 41.2023 95.3641 42.6604C95.4187 42.7281 95.3528 42.8899 95.3433 43.0085C95.2265 42.9784 95.0776 42.984 94.9984 42.9125C94.0654 42.0678 93.1984 41.1384 92.2069 40.3689C88.5936 37.5675 84.7202 35.2007 80.4057 33.6166C79.8836 33.4247 79.337 33.2798 78.7885 33.1895C78.568 33.1538 78.3135 33.3212 78.0741 33.3946C78.1722 33.5752 78.2287 33.7991 78.3719 33.9289C79.3634 34.8169 80.3247 35.752 81.3877 36.5459C84.1359 38.5947 86.9481 40.5551 89.7 42.6002C90.7047 43.3452 91.6113 44.222 92.55 45.0535C92.6329 45.1269 92.6178 45.3113 92.648 45.4449C92.4746 45.4806 92.2484 45.6029 92.1334 45.537C90.4314 44.5606 88.7406 43.5691 87.0574 42.5626C84.8503 41.2418 82.4112 40.6718 79.8968 40.3595C79.6725 40.3313 79.4256 40.4799 79.1881 40.5476C79.3144 40.7075 79.4105 40.9164 79.5726 41.0217C80.2776 41.4789 80.9881 41.9285 81.7195 42.3406C85.0764 44.2276 88.4522 46.0808 91.7979 47.9866C94.7025 49.6403 97.1679 51.7701 98.7889 54.7558C98.9887 55.1246 99.2318 55.4783 99.3732 55.8696C99.5296 56.3061 99.59 56.7783 99.6917 57.2336C99.3487 56.942 98.9265 56.7049 98.6739 56.3494C95.6883 52.1689 91.5133 49.5745 86.9896 47.362C84.2999 46.0469 81.7327 44.4722 79.1523 42.9464C78.5114 42.5663 77.9215 41.9963 77.4917 41.3848C76.7566 40.3369 77.2278 39.2607 78.4813 39.0274C79.222 38.8901 79.9911 38.9089 80.7469 38.8581C80.0664 38.2768 79.3841 37.6992 78.7056 37.116C77.8555 36.386 76.9677 35.6955 76.178 34.9072C75.7444 34.4745 75.3825 33.912 75.1545 33.34C74.6757 32.1378 75.3448 31.0316 76.6774 30.9808C77.7028 30.9413 78.7452 31.1971 79.7724 31.3683C80.4547 31.4812 81.1239 31.675 81.7986 31.8312C81.8175 31.8876 81.8269 31.9516 81.859 32.0005C81.8778 32.0287 81.9306 32.0362 81.9683 32.0532L81.7515 31.8782C80.8958 31.0861 80.0269 30.3053 79.1881 29.4964C78.7904 29.1144 78.3927 28.7099 78.0986 28.2509C77.765 27.7335 77.4729 27.1578 77.9629 26.5313C78.4134 25.9575 79.0279 25.8295 79.6424 26.029C80.6922 26.3676 81.7006 26.8304 82.7373 27.2123C83.2462 27.3986 83.7778 27.519 84.2999 27.6695C84.413 27.726 84.5261 27.7824 84.641 27.8389C84.5317 27.7786 84.4224 27.7184 84.3131 27.6582C83.9908 27.1277 83.6741 26.5915 83.3442 26.0647C83.0182 25.5417 82.8711 24.949 83.3782 24.5427C83.7721 24.2266 84.3658 23.9707 84.8521 24.0027C85.4515 24.0422 86.0471 24.3715 86.6164 24.6367C92.2031 27.2556 97.1773 30.6534 101.105 35.5149C103.529 38.5157 105.665 41.7065 107.936 44.8033C110.526 48.3365 113.187 51.9018 116.552 54.8104C118.461 56.4604 120.395 58.0784 122.331 59.6964C122.804 60.0914 123.03 60.3116 123.735 59.6004C125.669 57.6475 127.463 55.3993 130.447 54.8254C132.264 54.4755 134.049 54.3212 135.832 54.8875C138.079 55.6006 139.287 57.1828 139.519 59.4969C139.738 61.6737 139.572 63.826 138.997 65.9463C138.65 67.2219 138.65 67.3009 139.887 67.7393C142.256 68.5802 144.655 69.3347 147.045 70.1192C147.577 70.2942 148.124 70.4202 148.648 70.6121C148.795 70.6667 148.885 70.8774 149 71.0185C148.83 71.1088 148.653 71.2857 148.491 71.2725C146.19 71.1013 143.89 70.8962 141.687 70.1343C141.159 69.9518 140.62 69.7975 140.094 69.6094C137.9 68.823 137.996 68.8756 136.869 70.7777C135.555 72.9959 134.079 75.1218 132.615 77.2478C131.955 78.2054 131.919 78.1339 132.749 79.0972C134.253 80.8469 135.719 82.6286 137.195 84.4046C137.417 84.6717 137.64 84.9577 137.777 85.2719C137.868 85.4807 137.806 85.7535 137.813 86C137.63 85.9285 137.404 85.9022 137.272 85.7761C136.456 85.0066 135.683 84.192 134.854 83.4376C133.663 82.352 132.423 81.321 131.231 80.2336C130.653 79.7049 130.202 79.7482 129.599 80.2411C128.138 81.4395 126.659 82.6191 125.109 83.6991C123.822 84.5984 122.348 85.0612 120.738 84.89C119.3 84.7376 118.241 84.034 117.662 82.6906C117.594 82.5345 117.626 82.2485 117.734 82.1319C117.82 82.0359 118.133 82.0265 118.267 82.1074C120.243 83.304 122.088 82.6436 123.807 81.6088C129.505 78.1753 133.489 73.3025 136.109 67.1918C137.095 64.8946 137.821 62.6332 137.757 60.1441C137.696 57.7755 136.865 56.72 134.59 56.0747C132.92 55.6006 131.265 55.7849 129.631 56.2741C129.503 56.3117 129.384 56.387 129.262 56.4434C129.426 56.5018 129.586 56.5657 129.752 56.6146C129.816 56.6335 129.891 56.6146 129.961 56.6184C133.393 56.7934 134.605 58.052 134.5 61.4479C134.441 63.3444 134.098 65.1938 133.118 66.8663C131.527 69.5793 130.091 72.4013 128.285 74.9638C126.934 76.8828 125.162 78.5271 123.451 80.1602C122.834 80.7472 121.879 81.114 121.019 81.2796C119.719 81.5298 118.452 80.6249 117.984 79.2063C117.728 78.4274 117.596 77.5601 117.645 76.7473C117.681 76.1472 118.098 75.5696 118.346 74.9826C118.535 75.4812 118.723 75.9797 118.914 76.4783C119.04 76.8038 119.153 77.1368 119.302 77.4529C119.911 78.7397 120.416 78.9203 121.558 78.0963C122.404 77.4848 123.155 76.7361 123.927 76.0287C124.468 75.5339 124.431 75.1011 123.752 74.7267C121.973 73.7484 120.239 72.6873 118.431 71.7636C112.777 68.8756 106.734 67.1673 100.531 65.9275C95.4583 64.9134 90.3522 63.9897 85.4968 62.144C83.8136 61.5044 82.1794 60.6446 80.6715 59.6587C79.2371 58.7199 78.8017 57.4255 79.3144 56.4585C80.0137 55.1434 81.2973 55.2657 82.4715 55.4294C83.4291 55.5629 84.3885 55.8564 85.2875 56.2233C89.0252 57.751 92.7252 57.9278 96.4196 56.0991C96.5459 56.0371 96.7872 56.1217 96.9304 56.2101C96.9945 56.2497 97.0115 56.5187 96.9474 56.5939C96.5892 57.006 96.265 57.6118 95.8108 57.7435C94.0824 58.2402 92.3634 58.893 90.486 58.5205C88.2298 58.0746 85.9661 57.6663 83.6967 57.3013C83.0219 57.1922 82.317 57.2807 81.6252 57.2807C82.1945 57.7566 82.6883 58.4433 83.3442 58.671C86.0453 59.6098 88.7519 60.5957 91.534 61.2203C97.3979 62.5354 103.36 63.4365 109.19 64.8739C114.942 66.2925 120.244 68.8794 125.04 72.3957C126.236 73.2743 126.376 73.2085 127.156 72.0514C128.33 70.313 129.418 68.5163 130.56 66.7553C130.92 66.2022 130.741 65.8823 130.187 65.6679C128.621 65.0621 127.013 64.5484 125.501 63.8298C123.679 62.9624 121.831 62.0763 120.18 60.9305C114.776 57.1809 110.285 52.4511 106.31 47.2604C104.018 44.2671 101.95 41.0876 99.9462 37.8892C96.9587 33.1199 92.4991 30.1925 87.6663 27.6808C87.5569 27.6244 87.3929 27.6695 87.2535 27.6676C87.1536 27.6131 87.0556 27.5585 86.9557 27.504C87.0574 27.5566 87.1592 27.6074 87.261 27.6601L87.2553 27.6564ZM129.85 58.306C129.639 58.3154 129.412 58.2778 129.222 58.3418C127.906 58.7839 126.532 59.1206 125.305 59.7434C124.22 60.2965 124.331 61.0961 125.449 61.6229C126.777 62.2475 128.125 62.8326 129.478 63.4046C131.904 64.428 132.083 64.3114 132.315 61.668C132.34 61.3896 132.36 61.1093 132.358 60.8289C132.345 58.8779 131.785 58.3173 129.85 58.306Z" fill="black"/>
<path d="M52.2892 23.9049C54.5681 21.7563 56.8075 19.5477 59.6269 18.0878C60.481 17.6461 61.4121 17.3223 62.3394 17.0547C63.0602 16.8469 63.6965 17.1164 64.147 17.7659C64.5919 18.4079 64.3141 19.0199 63.9743 19.514C63.4656 20.2515 62.8668 20.9477 62.2061 21.5541C60.2595 23.3472 58.2491 25.0728 56.2988 26.8621C55.7563 27.36 55.3339 27.987 54.8553 28.5541C54.8027 28.5916 54.752 28.6309 54.6995 28.6683C54.737 28.6159 54.7764 28.5653 54.814 28.5129C57.2599 27.9683 59.7001 27.3563 62.2324 27.9908C62.8706 28.1517 63.2197 27.9365 63.4469 27.2477C64.1283 25.1851 64.5581 24.9662 66.6305 25.3798C67.7211 25.5969 68.8173 25.799 69.8985 26.0592C72.1717 26.6076 72.5922 27.7156 71.2013 29.6453C70.595 30.4857 69.8385 31.2231 69.1158 31.9736C68.7291 32.376 68.654 32.683 68.9281 33.2389C70.7076 36.8605 69.7071 39.9693 66.0823 41.6538C64.819 42.2397 63.9068 42.934 63.2404 44.1581C62.4539 45.603 61.0929 46.5463 59.625 47.222C57.4157 48.2402 55.1931 49.2677 52.8899 50.0351C49.4416 51.1824 46.0027 52.2886 43.0913 54.5682C42.9468 54.6805 42.7234 54.6918 42.5357 54.7498C42.5582 54.5121 42.4925 54.207 42.6183 54.0498C44.6962 51.4183 47.2416 49.5129 50.5397 48.5527C53.3385 47.7386 56.0942 46.726 58.7822 45.5993C60.0981 45.0471 61.2431 44.0683 62.4126 43.2129C62.8499 42.8929 62.7242 42.5784 62.1535 42.3613C61.1868 41.9945 60.374 42.0618 59.3998 42.511C57.0684 43.5835 54.6807 44.5624 52.2498 45.3822C51.1667 45.7471 49.9147 45.7677 48.7508 45.7134C47.0239 45.6311 46.151 44.3191 46.6672 42.687C46.9357 41.8372 47.3317 41.0081 47.7916 40.2445C49.0943 38.0771 50.8138 36.2466 52.7228 34.6052C54.5737 33.0143 56.7718 32.5295 59.1651 32.7691C59.6776 32.8196 59.9122 33.0742 59.8728 33.5833C57.3593 33.2557 55.0861 33.9164 53.3817 35.7375C51.7768 37.452 50.4027 39.3929 49.0493 41.3188C48.5744 41.9926 47.694 42.9958 48.4524 43.6995C48.9517 44.1618 50.2037 44.0814 51.0297 43.883C53.8641 43.2017 56.6554 42.3463 59.473 41.5921C60.0418 41.4405 60.0962 41.2795 59.8109 40.7742C58.9117 39.1795 58.7709 37.5025 59.3341 35.7469C59.5631 35.03 59.6663 34.2739 59.8278 33.5365C60.3515 32.9843 60.8189 32.3592 61.4158 31.9025C61.8888 31.5413 62.5064 31.341 63.0902 31.1707C63.2704 31.1183 63.5501 31.4009 63.7847 31.5319C63.6027 31.6517 63.3962 31.7453 63.2441 31.895C62.6641 32.4677 61.9733 32.9806 61.5566 33.6581C60.6481 35.1367 60.5317 36.825 60.7607 38.5038C60.9822 40.1228 61.8738 40.7685 63.5182 40.6787C65.7689 40.557 67.7793 38.7659 68.2673 36.4469L68.2185 36.5068C69.1984 34.2065 68.4963 32.4378 66.3057 31.9081C65.3033 31.6667 64.4774 31.3335 63.9931 30.3472C63.873 30.1038 63.4675 29.9129 63.1634 29.8624C62.1348 29.6846 61.0948 29.5592 60.0549 29.4525C56.7605 29.1175 53.851 30.0252 51.3206 32.1627C51.1742 32.2862 50.9077 32.2694 50.6993 32.3199C50.7256 32.1196 50.7275 31.9137 50.7875 31.7247C50.8269 31.6012 50.9302 31.4739 51.0372 31.3953C53.1546 29.868 54.2189 27.4236 56.0942 25.6662C57.9732 23.9031 59.6813 21.9584 61.4646 20.0942C61.5134 20.0437 61.5697 19.9988 61.6073 19.9426C61.8945 19.5253 62.176 19.106 62.4614 18.6868C62.0052 18.8178 61.5097 18.8739 61.1004 19.0929C57.4401 21.0376 54.0744 23.3827 51.3732 26.5627C50.8157 27.2196 50.2375 27.7325 49.4003 27.9533C49.1863 28.0095 48.9967 28.1536 48.7959 28.2584C48.8484 28.0712 48.8729 27.8672 48.9592 27.6969C50.0686 25.5295 51.1967 23.3715 52.3024 21.2023C53.1527 19.5309 53.9918 17.852 54.8008 16.16C54.9679 15.8119 54.9848 15.3926 55.0692 15.0052C54.6694 15.1999 54.1607 15.3009 53.8923 15.6079C52.9819 16.6504 52.0546 17.7041 51.3169 18.8683C49.3797 21.9228 47.542 25.0392 45.6611 28.1293C45.4077 28.5448 45.1749 28.9771 44.8689 29.3514C44.7319 29.5199 44.441 29.5611 44.2195 29.6603C44.2157 29.4787 44.1669 29.2822 44.2157 29.1156C45.021 26.4148 45.8432 23.7178 46.6522 21.017C46.731 20.7531 46.8061 20.4742 46.8005 20.2028C46.7967 19.9745 46.6747 19.7499 46.6034 19.5234C46.4495 19.6581 46.2561 19.7667 46.1473 19.9314C44.4053 22.563 43.0819 25.4116 42.3555 28.4624C41.2705 33.0087 39.3126 37.0814 36.4613 40.776C35.6222 41.8616 35.0328 43.1399 34.3308 44.3303C34.8826 45.4514 35.4308 46.5744 35.9883 47.6937C36.6697 49.0637 37.3266 50.4487 38.055 51.7945C38.6481 52.8912 39.2714 53.9843 39.994 54.9969C41.0021 56.4081 41.034 56.7394 39.7857 58.0083C39.1493 58.6541 38.4942 59.2867 37.8091 59.8781C37.2516 60.3591 37.1277 60.8289 37.4543 61.5214C37.9273 62.5246 38.3028 63.5746 38.6801 64.619C38.7138 64.7145 38.406 65.0607 38.3497 65.0401C37.5313 64.7388 37.2009 65.422 36.7973 65.8319C32.448 70.2639 28.1043 74.7035 23.7907 79.1711C20.1078 82.9856 16.4699 86.8412 12.802 90.6687C12.6481 90.8297 12.389 90.8914 12.1788 91C12.2764 90.7679 12.3271 90.4984 12.4791 90.3094C18.1387 83.227 23.8508 76.1877 30.3925 69.8821C32.3973 67.9506 34.556 66.1762 36.6715 64.3626C37.1296 63.9696 37.1258 63.7188 36.8968 63.1573C35.9151 60.7484 34.0548 58.9161 32.7727 56.6963C30.6009 52.9399 28.8984 49.0019 27.4304 44.9423C26.8335 43.2915 26.811 43.2897 25.3299 44.2217C20.1735 47.4691 15.4788 51.3153 10.9812 55.3936C7.46908 58.5792 4.09589 61.9164 0.645731 65.173C0.497438 65.3115 0.217747 65.3115 0 65.377C0.0525595 65.1225 0.0206483 64.7968 0.168941 64.6228C1.16382 63.4549 2.17183 62.2982 3.21927 61.1771C9.66157 54.2838 16.4417 47.7629 24.275 42.4231C24.8494 42.0319 25.4407 41.6463 26.0639 41.345C27.3873 40.7049 28.1606 41.0006 28.7594 42.2995C29.0673 42.9677 29.3658 43.6415 29.668 44.3116C30.3137 43.9185 30.9519 43.5105 31.607 43.1343C32.0238 42.8947 32.6282 42.4006 32.8704 42.5316C34.2932 43.3046 34.4847 42.0918 35.0065 41.3637C38.2183 36.883 40.1667 31.88 41.3812 26.5346C42.0664 23.5231 43.6188 20.8597 45.2932 18.29C45.7343 17.6124 46.2224 16.7084 47.2135 16.9648C48.3867 17.2699 48.0882 18.3723 48.152 19.2464C48.1971 19.8753 48.2834 20.5023 48.3529 21.1311C48.6664 20.5977 49.0211 20.083 49.2858 19.5271C50.2206 17.5619 51.2793 15.6771 53.01 14.2959C53.6483 13.7849 54.3897 13.3095 55.1631 13.083C56.2406 12.7667 56.9708 13.3787 56.9126 14.5017C56.875 15.241 56.6892 16.0346 56.3457 16.6841C55.4053 18.464 54.3334 20.1747 53.3385 21.9266C52.9669 22.5835 52.6646 23.2798 52.3305 23.9573C52.2742 23.9779 52.2123 23.9892 52.1635 24.021C52.1353 24.0397 52.124 24.0865 52.1053 24.1202C52.1653 24.049 52.2235 23.9798 52.2836 23.9087L52.2892 23.9049ZM38.7551 56.4062C38.6632 56.2527 38.5543 56.0862 38.4604 55.9102C37.6702 54.4428 36.8555 52.9886 36.1028 51.5025C35.0028 49.3314 33.9572 47.1359 32.8685 44.9592C32.7258 44.6747 32.3654 44.1937 32.2922 44.2255C31.5958 44.5324 30.8599 44.8431 30.3118 45.3429C30.0903 45.545 30.1936 46.2525 30.3287 46.6736C31.6971 50.956 34.3833 54.5813 36.3186 58.5829C36.4782 58.9142 36.6528 58.9947 36.9081 58.7046C37.4599 58.0776 38.0062 57.445 38.5468 56.8067C38.6331 56.7038 38.6744 56.5634 38.7533 56.4062H38.7551ZM66.4503 27.7867C65.5736 27.6726 65.3991 27.8111 65.3334 28.6028C65.1776 30.5025 65.4347 30.7907 67.3062 31.1089C67.8168 31.195 68.0721 31.3204 68.3199 30.6616C69.3298 27.9776 69.3636 28.5953 66.9759 27.9252C66.7769 27.8691 66.576 27.8204 66.4484 27.7867H66.4503Z" fill="black"/>
<path d="M68 36.8815C67.3701 37.6654 66.8038 38.5295 66.0927 39.2161C65.1329 40.1412 63.8802 40.2232 63.0175 39.59C61.9959 38.8385 61.8618 37.7036 62.1035 36.563C62.3523 35.3861 62.8481 34.276 63.9191 33.6733C64.0867 33.5798 64.3866 33.763 64.6248 33.8164C64.5789 34.0052 64.5666 34.2131 64.4836 34.3829C64.122 35.121 63.6914 35.8229 63.3827 36.584C63.118 37.2363 63.2945 37.9687 63.8838 38.2205C64.2508 38.3788 64.8894 38.1728 65.2547 37.8962C66.6326 36.8491 66.7403 35.7771 65.791 34.0567C65.6128 33.7324 65.5193 33.3548 65.387 33C65.724 33.1698 66.0804 33.3071 66.3962 33.515C67.5801 34.297 68.0071 35.4949 67.9541 36.9426L68 36.8815Z" fill="black"/>
<path d="M68 22.7497C68.3257 21.9097 68.6258 21.0516 68.9992 20.2418C69.0776 20.073 69.5346 19.9344 69.6318 20.0328C69.8279 20.2318 70.0547 20.6719 69.9882 20.8949C69.7 21.8575 69.3215 22.7859 68.9429 23.7062C68.8798 23.8609 68.6428 24.0217 68.5115 23.9976C68.4007 23.9775 68.2916 23.7022 68.2438 23.5193C68.191 23.3123 68.2114 23.0813 68.1995 22.8602C68.133 22.824 68.0665 22.7859 68 22.7497Z" fill="black"/>
<path d="M71.1135 24.998C71.0741 24.7788 70.9592 24.5272 71.015 24.373C71.3073 23.5634 71.5897 22.7294 71.9887 22.001C72.2088 21.5992 72.3172 20.6881 72.9378 21.1082C73.0791 21.2035 72.9625 22.2242 72.7605 22.6807C72.4206 23.4477 71.9214 24.1092 71.4748 24.8011C71.4091 24.9026 71.2597 24.9229 71.1119 25L71.1135 24.998Z" fill="black"/>
<path d="M65.0058 22.8861C65.0058 22.517 64.9927 22.4529 65.0058 22.3923C65.1275 21.8587 64.7724 20.9631 66.0646 21.0012C67.531 21.0462 66.8865 21.8553 66.6827 22.3871C66.6597 22.4495 66.6564 22.5136 66.6136 22.5725C66.2553 23.0506 66.949 23.754 65.5089 24C65.2952 23.5322 65.0848 23.0645 65.0026 22.8861H65.0058Z" fill="black"/>
<path d="M68.2413 28.3611C69.0418 28.2995 69.7673 28.1578 70.4759 28.2119C71.2951 28.2753 71.7132 29.2619 71.1452 29.8326C70.2266 30.7557 69.1786 31.5689 67.797 31.6659C66.6403 31.7479 65.9861 30.974 66.3423 29.8904C66.5804 29.1649 66.9853 28.4823 67.3977 27.8333C67.5008 27.671 67.9264 27.7139 68.2038 27.6636C68.2151 27.8967 68.2282 28.1298 68.2394 28.3611H68.2413Z" fill="black"/>
<path d="M52.4997 17.8461C52.0311 18.7712 52.6984 19.478 52.8128 20.3434C51.7742 20.2166 51.568 19.3736 51.2737 18.7413C51.03 18.2173 50.6138 17.641 50.9419 16.9789C51.2325 16.3914 51.7367 16.1098 52.3554 16.2646C53.2027 16.4772 54.0238 16.798 54.9349 17.0983C54.9293 17.1001 55.068 17.0964 55.1074 17.0311C55.4148 16.5201 55.7448 15.9923 56.4478 16.3113C56.9896 16.5593 56.8021 17.1225 56.7777 17.5645C56.7327 18.4001 56.5209 18.7246 55.8479 18.7544C55.2442 18.7805 54.6162 18.6779 54.0313 18.5194C53.5008 18.3758 53.0134 18.0774 52.5016 17.8461H52.4997Z" fill="black"/>
</svg>
