<svg width="137" height="164" viewBox="0 0 137 164" fill="none" xmlns="http://www.w3.org/2000/svg">
<g clip-path="url(#clip0_59_122)">
<g clip-path="url(#clip1_59_122)">
<path d="M61.4323 4.7179C55.9579 2.97163 53.7875 4.58628 50.7376 12.704C49.454 16.1222 48.9849 16.9629 48.3124 17.0554C46.7542 17.276 45.9831 18.8483 46.6405 20.4308C47.0042 21.2903 38.7619 39.5471 36.7632 42.3029C34.8562 44.9423 32.6699 46.1819 25.8685 48.4782C7.36485 54.7352 0.109309 64.1983 -19.3733 107.512C-33.8398 139.703 -33.8918 142.28 -20.1434 151.43C-2.72161 163.029 12.3605 167.272 19.6588 162.637C26.6485 158.192 29.5954 152.971 47.0252 114.175C61.0985 82.8597 62.9355 77.7977 62.7789 70.9086C62.6736 66.5127 61.5714 63.929 57.7886 59.1447C54.2447 54.6776 53.9979 53.0297 55.9198 46.5475C56.8641 43.3581 63.8398 28.1593 64.4247 28.0276C66.1309 27.6236 66.6582 25.3639 65.4065 23.817C65.1057 23.4324 65.1057 23.4324 65.976 21.2872C70.7718 9.51185 70.2205 7.51712 61.4323 4.7179ZM65.2963 10.4059C65.7076 10.8663 65.7287 11.4933 65.3611 12.9575C64.8591 14.9264 61.171 23.8221 60.8642 23.8027C59.9547 23.7494 51.5703 19.962 51.4013 19.5183C51.3771 19.4549 51.6039 18.9786 51.91 18.4721C52.2161 17.9657 53.4408 15.4406 54.6315 12.8742C57.0632 7.65857 57.1832 7.44963 57.8334 7.46542C59.4407 7.51638 64.4736 9.485 65.2963 10.4059ZM60.1229 28.2394C59.8915 28.6086 59.0152 30.357 58.1717 32.1201C56.6428 35.3232 56.6428 35.3232 56.0065 35.1298C53.5478 34.3684 49.8019 32.872 47.5697 31.7525C45.9246 30.9357 45.9246 30.9357 46.3957 29.8857C46.8716 28.8247 48.1559 25.5513 48.7458 23.8846C49.0727 22.9802 49.0727 22.9802 51.4826 24.1138C53.8986 25.2633 56.9612 26.4663 59.1413 27.1159C59.7776 27.3093 60.3543 27.4891 60.4248 27.5076C60.5064 27.5311 60.4191 27.7547 60.1229 28.2394ZM51.1046 48.8414C49.7938 54.2838 50.7817 57.9722 54.6902 62.3006C60.357 68.6004 60.169 73.5609 53.6484 89.6208C48.601 102.045 42.6936 115.214 31.4715 139.058C20.8607 161.599 16.5138 164.314 0.661996 158.359C-7.9897 155.109 -20.0067 147.931 -24.0881 143.578C-27.6584 139.756 -27.525 137.319 -23.0642 125.499C-21.1713 120.488 -12.4447 101.24 -7.75846 91.7015C0.413864 75.0954 7.28503 64.4084 13.1265 59.2113C16.9441 55.8003 19.3765 54.5394 28.0974 51.4223C35.2002 48.8935 37.6752 47.2448 40.117 43.4133C40.5099 42.8012 40.8537 42.2986 40.8745 42.2815C40.9013 42.2805 41.5625 42.6821 42.3462 43.1914C45.1608 45.0057 48.638 46.3686 50.8296 46.5239C51.7341 46.5881 51.7021 46.3372 51.1046 48.8414Z" fill="black"/>
<path d="M43.8893 58.7135C40.0501 57.8061 32.304 68.7438 35.1398 71.0674C36.335 72.0371 36.9454 71.6142 38.173 68.907C39.6128 65.7558 42.1928 62.1438 42.8166 62.4236C43.2434 62.6151 42.1878 66.3458 40.6401 70.1183C39.5304 72.8267 39.3824 73.7719 39.9658 74.4935C41.1798 76.0367 43.267 73.8455 44.911 69.3014C47.1559 63.0955 46.7951 59.3867 43.8893 58.7135Z" fill="black"/>
<path d="M26.2327 56.0783C22.4161 55.3255 19.2549 59.0316 19.4654 64.0134C19.6627 68.5558 22.6514 68.5166 22.8132 63.9649C23.0825 56.3605 28.9203 59.465 29.552 67.5524C29.807 70.7936 32.4206 71.0338 32.7366 67.8384C33.2617 62.477 30.1575 56.8538 26.2327 56.0783Z" fill="black"/>
<path d="M54.0932 69.5218C50.0022 68.8827 42.3131 75.3263 45.4235 76.7744C46.1956 77.1337 46.6576 77.0126 47.7222 76.1632C49.5609 74.7017 52.3838 73.1566 52.8435 73.3628C52.9091 73.3923 52.4736 74.3923 51.7527 75.8823C50.1972 79.0862 50.0404 80.0803 50.9858 80.7276C52.3684 81.6897 54.4612 79.8958 56.0117 76.4394C57.6552 72.7757 56.8706 69.9536 54.0932 69.5218Z" fill="black"/>
<path d="M45.4439 80.804C44.3254 80.6306 43.2869 80.5718 41.3335 80.589C34.7535 80.6333 33.167 80.5654 30.8351 80.1367C27.0866 79.4667 25.2871 78.1737 22.0973 73.8256C19.5002 70.2956 16.7324 69.4617 13.3037 71.1557C8.9969 73.2834 4.77669 79.4968 6.61191 81.0032C7.42327 81.6562 8.45224 81.3553 8.91817 80.3166C9.76822 78.451 13.2534 75.0483 15.1718 74.2006C17.1853 73.3169 17.7674 73.6309 19.8876 76.6709C24.4937 83.2832 28.2813 84.7455 40.1091 84.5201C44.8293 84.4306 45.9944 84.559 46.2043 85.2048C46.648 86.5599 45.2848 90.5074 41.7752 98.0382C39.2149 103.511 39.0292 104.072 39.4424 105.085C40.6397 108.013 44.3035 103.626 47.5109 95.4212C51.2804 85.7872 50.6861 81.6318 45.4439 80.804Z" fill="black"/>
<path d="M37.4126 89.1818C37.1457 89.2201 36.5877 89.3504 36.1744 89.4805C34.7126 89.955 33.9318 89.6441 32.343 87.9985C30.7591 86.3422 29.667 85.9046 26.7876 85.7296C23.7304 85.5407 23.2122 85.3476 21.1048 83.6275C17.8523 80.9724 15.5884 80.2459 13.2791 81.115C11.038 81.9495 11.8208 84.3367 14.2233 84.0216C15.6912 83.8265 16.7468 84.2866 18.6106 85.9639C21.3004 88.3788 22.9506 89.0667 26.507 89.2564C28.6379 89.3711 28.9054 89.4782 30.0901 90.7057C32.7517 93.4763 35.4912 94.022 38.2548 92.3452C40.102 91.2165 39.4847 88.9294 37.4126 89.1818Z" fill="black"/>
<path d="M16.2056 88.1022C7.83949 86.9117 4.39384 105.231 10.9869 115.796C15.6803 123.327 23.507 120.65 33.4457 108.107C40.046 99.7824 36.3855 95.6045 25.8781 99.5097C24.4564 100.042 24.4564 100.042 24.245 98.7249C23.3179 93.1719 19.8778 88.6199 16.2056 88.1022ZM18.0625 93.0478C20.029 95.375 20.9743 99.0705 20.5701 102.844C20.2325 105.911 22.6666 107.108 23.8589 104.451C24.4034 103.237 32.7612 100.929 33.1296 101.896C33.5148 102.883 27.6085 109.719 23.3434 113.219C18.5705 117.148 16.2246 117.278 13.9749 113.707C8.37499 104.796 12.0901 85.9935 18.0625 93.0478Z" fill="black"/>
<path d="M5.48283 83.4902C4.6658 83.8462 4.5627 84.076 3.79514 86.8715C1.54589 95.1386 -1.43449 102.867 -5.0334 109.805C-5.80801 111.298 -6.90996 113.549 -7.47923 114.818C-8.42119 116.918 -8.77868 117.861 -10.3178 122.347C-10.9679 124.236 -11.8897 126.057 -12.7013 127.045C-13.3396 127.824 -13.8441 128.333 -16.2942 130.571C-19.2244 133.264 -20.0589 134.86 -19.3505 136.505C-18.467 138.609 -16.3161 138.825 -10.2056 137.454C-4.00996 136.068 -2.60279 136.214 -0.892794 138.439C3.75789 144.454 6.53449 145.62 11.513 143.636C12.3105 143.324 13.0509 142.933 13.3721 142.657C14.0766 142.054 14.3174 142.162 15.1034 143.486C17.0972 146.837 19.1188 147.547 21.8276 145.846C24.893 143.936 27.1567 139.827 29.2739 132.382C30.3728 128.526 30.6406 127.753 32.0069 124.385C34.0544 119.352 34.1775 118.198 32.722 117.545C31.4305 116.966 31.0024 117.51 28.92 122.475C27.2718 126.412 27.0185 127.153 25.8893 131.429C24.3248 137.349 22.4577 141.188 20.3981 142.761C19.2179 143.663 19.011 143.597 18.0785 141.983C16.2389 138.845 13.4628 137.942 11.4218 139.825C10.9723 140.24 9.34952 140.839 8.1553 141.04C6.55076 141.305 4.81317 140.079 2.67211 137.174C-0.51678 132.853 -2.99438 132.28 -10.8485 134.052C-13.587 134.676 -15.4644 134.963 -15.3712 134.755C-15.283 134.559 -14.7369 134.016 -13.1197 132.521C-9.46655 129.154 -8.17168 127.146 -6.70792 122.653C-6.42867 121.766 -5.82885 120.077 -5.37462 118.889C-4.54906 116.697 -4.54906 116.697 -0.776943 109.285C2.60537 102.682 6.41252 91.2647 7.19221 85.453C7.35569 84.2387 6.36823 83.099 5.48283 83.4902Z" fill="black"/>
<path d="M38.9713 108.273C36.6126 107.465 34.8525 109.132 36.6955 110.445C38.8375 111.971 41.5266 112.336 42.0467 111.177C42.5666 110.018 41.7166 109.216 38.9713 108.273Z" fill="black"/>
<path d="M36.9083 115.364C34.6451 114.782 33.6612 117.034 35.6361 118.288C37.9742 119.757 39.5949 119.867 40.1739 118.576C40.7381 117.319 39.4162 116.016 36.9083 115.364Z" fill="black"/>
<path d="M15.4675 122.892C13.0764 122.713 10.8534 124.356 10.2296 126.744C10.1101 127.215 9.99676 127.585 9.97489 127.575C9.79976 127.496 8.86092 126.366 7.89919 125.081C4.5466 120.568 1.16703 119.867 -2.86826 122.825C-5.37323 124.658 -3.61674 126.838 -0.772301 125.421C2.16588 123.941 2.86418 124.201 5.52797 127.788C7.0013 129.749 7.89756 130.506 9.80313 131.387C11.1661 132.012 11.436 132.172 11.7197 132.536C14.2415 135.677 20.5175 136.193 22.1388 133.399C22.9642 131.97 21.5516 131.192 19.1544 131.759C17.1934 132.232 14.8813 131.76 16.0302 131.133C20.261 128.852 19.8724 123.212 15.4675 122.892ZM15.5984 126.498C15.863 127.168 13.9248 128.822 13.2354 128.513C13.0493 128.429 13.2194 127.493 13.5019 127.068C14.011 126.285 15.386 125.916 15.5984 126.498Z" fill="black"/>
<path d="M17.6563 151.188C17.1845 151.331 16.8294 151.566 16.1065 152.24C13.694 154.482 11.5792 153.979 12.0993 151.296C12.5576 148.926 10.3404 148.037 8.62087 149.907C7.25467 151.37 5.17038 152.353 4.27296 151.95C3.63821 151.665 3.62771 150.018 4.25794 148.672C5.42908 146.149 3.08161 144.466 1.29094 146.553C-1.47764 149.765 -5.97012 148.643 -5.15448 144.949C-4.63052 142.609 -6.46002 141.617 -8.34074 143.231C-10.1029 144.727 -12.8207 145.071 -13.4512 143.868C-13.6911 143.406 -13.62 142.925 -13.1361 141.671C-12.2213 139.309 -14.1177 137.88 -15.5428 139.856C-18.9582 144.656 -15.2002 149.613 -9.52316 147.772C-8.58575 147.47 -8.58576 147.47 -8.22639 148.222C-6.90573 151.022 -3.41076 152.55 -0.404747 151.652C0.204768 151.465 0.20477 151.465 0.495246 152.371C1.53708 155.558 5.49187 156.53 8.84884 154.41C9.1575 154.22 9.15751 154.22 9.36082 154.587C11.2521 157.932 16.0001 157.986 18.6302 154.673C20.16 152.757 19.5652 150.625 17.6563 151.188Z" fill="black"/>
</g>
</g>
<defs>
<clipPath id="clip0_59_122">
<rect width="137" height="164" fill="white"/>
</clipPath>
<clipPath id="clip1_59_122">
<rect width="64" height="170" fill="white" transform="translate(32.5796 -9) rotate(24.1603)"/>
</clipPath>
</defs>
</svg>
