<svg width="88" height="64" viewBox="0 0 88 64" fill="none" xmlns="http://www.w3.org/2000/svg">
<g clip-path="url(#clip0_15_278)">
<path d="M59.6355 0.242307C57.1464 1.19817 55.67 4.61673 55.4912 9.80759C55.2926 15.3635 57.2856 20.8199 58.8544 19.0343C59.0663 18.7887 59.0598 17.9192 58.8414 17.6404C58.7221 17.4943 58.1792 14.3413 58.1792 13.8036C58.1792 13.6642 58.2322 13.6377 58.6626 13.5381C62.9724 12.5159 65.7398 7.013 63.9987 2.91076C63.1512 0.906101 61.1185 -0.328556 59.6355 0.242307ZM60.9531 2.36645C62.9857 3.42189 62.6282 7.57061 60.311 9.78768C59.6557 10.4116 58.3115 11.3011 58.0137 11.3011C57.9542 11.3011 57.9806 9.30311 58.0469 8.37378C58.358 4.43085 59.6687 1.70266 60.9531 2.36645Z" fill="#B79992"/>
<path d="M49.9239 0.752596C49.0962 0.991565 48.9243 3.56708 49.2948 10.1718C49.5331 14.3538 49.5994 16.9226 49.4736 17.062C49.447 17.0886 48.5335 15.5552 48.0371 14.6524C47.1763 13.0792 45.4749 9.74038 44.1642 7.03209C42.3301 3.24848 42.4163 3.36793 41.721 3.54055C40.9135 3.74631 40.9863 4.49638 42.1182 7.39717C45.144 15.1636 48.1958 20.0424 49.9502 19.9163C51.453 19.8101 51.7245 18.5887 51.7245 12.0637C51.7179 2.71079 51.3405 0.341045 49.9239 0.752596Z" fill="#B79992"/>
<path d="M73.903 1.37023C73.6449 1.64903 73.6315 1.72205 73.5321 3.23549C73.3933 5.45921 73.6647 6.52127 74.3665 6.52127C75.1873 6.52127 75.5713 4.88834 75.3265 2.39248C75.2072 1.19765 74.5252 0.706442 73.903 1.37023Z" fill="#B79992"/>
<path d="M82.8405 1.53688C82.4832 1.68292 80.8478 4.33145 80.1925 5.81836C79.226 8.01552 80.775 8.42042 81.993 6.28966C83.9396 2.9043 84.2838 0.946107 82.8405 1.53688Z" fill="#B79992"/>
<path d="M23.356 1.94863C19.9796 3.05053 19.0858 13.7708 21.6678 22.274C22.1776 23.9733 22.7072 24.4778 23.495 24.0331C24.0379 23.7277 24.0644 23.3494 23.6208 21.8293C23.2501 20.5482 22.8065 18.736 22.8462 18.6895C23.2368 18.3045 25.554 19.891 28.1227 22.2939C29.0694 23.1834 29.983 23.3892 30.3074 22.7918C30.8304 21.8027 27.752 18.6364 24.925 17.2491C24.2762 16.9305 24.2762 16.9305 24.5344 16.6251C28.6325 11.7064 27.7321 0.521473 23.356 1.94863ZM24.3027 3.91346C26.0836 5.78537 25.1435 12.7618 22.7602 15.3772C22.3232 15.8485 22.3497 15.8883 22.2371 14.4213C21.8267 9.05123 23.0845 2.64561 24.3027 3.91346Z" fill="#B79992"/>
<path d="M32.956 4.40537C29.4074 4.68417 27.6463 6.85476 29.2485 8.98556C29.7781 9.6958 30.1952 10.0344 32.7376 11.82C36.8686 14.7207 38.6032 16.6059 38.6959 18.3052C38.782 19.8784 36.0608 20.363 33.7372 19.1947C31.8768 18.2588 30.8573 19.7457 32.4792 21.0268C36.2529 24.0271 42.0721 21.1994 40.6489 17.0573C39.8876 14.8336 38.0005 12.9351 33.5847 9.94143C31.7377 8.68684 30.7381 7.81728 30.7844 7.49865C30.8639 6.96099 33.1478 6.39011 35.2003 6.39011C36.3852 6.39011 36.5839 6.34366 36.7626 5.99185C37.3322 4.88993 35.6437 4.19295 32.956 4.40537Z" fill="#B79992"/>
<path d="M84.5351 10.0462C83.476 10.1657 83.0193 11.0486 83.7409 11.5796C84.4028 12.0774 87.0112 11.8451 87.6535 11.2344C88.5738 10.3516 87.031 9.76742 84.5351 10.0462Z" fill="#B79992"/>
<path d="M72.1482 10.1128C68.3614 10.438 67.3287 10.7699 67.4876 11.5996C67.6066 12.2634 68.037 12.3298 70.8574 12.1307C77.6368 11.6594 77.6368 11.6528 78.835 24.3113C79.5037 31.4339 79.6558 33.4984 79.8612 38.3838C80.0797 43.6942 80.1194 43.9993 80.6226 44.5039C81.3904 45.2741 81.8936 44.5306 81.9134 42.5988C81.9797 36.4191 81.3374 26.6545 80.3245 18.3969C79.4442 11.2279 77.8484 9.62155 72.1482 10.1128Z" fill="#B79992"/>
<path d="M69.6991 15.0714C69.348 15.2373 68.9576 15.6688 68.6397 16.2197C65.9055 20.9924 62.8735 25.0614 58.8085 29.4226C57.1799 31.1683 53.1148 35.1909 53.0553 35.1244C53.042 35.1114 52.9825 34.9054 52.923 34.6665C52.1152 31.487 48.3086 31.4805 45.6735 34.6532C45.4486 34.9188 45.2698 35.1711 45.2698 35.2108C45.2698 35.2574 45.144 35.1711 44.9915 35.025C41.7941 31.9782 37.7226 33.3787 37.7226 37.521C37.7226 38.2378 37.8484 38.2244 36.5373 37.6205C28.7849 34.0492 19.8738 27.9025 13.6241 21.8155C12.0286 20.2622 11.4924 20.0432 11.1084 20.7933C10.7906 21.4239 11.36 22.2204 13.8426 24.6234C20.9331 31.4737 29.7713 37.3548 37.2392 40.1826C38.1728 40.5346 38.1728 40.5346 38.3844 41.1053C39.8807 45.0615 43.1048 47.5641 45.7993 46.8604C48.4344 46.1635 51.4134 42.4264 52.6516 38.2511C52.7507 37.9125 52.8037 37.8528 53.2673 37.5077C59.9339 32.5691 68.759 21.9748 70.4868 16.837C70.924 15.536 70.5332 14.6598 69.6991 15.0714Z" fill="#B79992"/>
<path d="M13.0283 15.2568C8.4668 15.8609 6.8779 17.1287 6.38138 20.5473C5.29564 28.0017 7.43403 49.0439 9.67834 53.0864C11.009 55.4693 12.4523 55.5955 20.3438 54.0157C30.1023 52.0575 34.4585 51.5532 45.8325 51.0552C48.5469 50.9359 57.6431 50.9027 63.2441 50.9887C71.8969 51.1282 74.9357 50.8828 78.0275 49.7942C80.0732 49.0706 81.0598 47.8624 80.2585 47.0593C79.8613 46.661 79.5303 46.6808 78.5041 47.1655C75.5846 48.5462 71.7581 48.9709 63.681 48.8115C52.2872 48.5859 49.2221 48.5726 43.8463 48.7453C34.4387 49.0374 28.8908 49.7277 19.8804 51.7257C11.5652 53.5643 11.5983 53.5776 10.5787 48.4797C8.74486 39.3059 7.86434 27.4042 8.56611 21.4036C8.89053 18.6289 9.30097 18.2572 13.3924 17.0756C15.3388 16.5114 15.4116 16.4715 15.4116 15.8343C15.4116 15.1572 14.8224 15.0178 13.0283 15.2568Z" fill="#B79992"/>
<path d="M3.29632 51.8984C0.840143 52.2566 -0.159541 52.7413 0.0258307 53.4847C0.191341 54.1487 1.23737 54.2083 3.46845 53.6839C4.96466 53.3254 5.21624 53.1663 5.2361 52.562C5.26259 51.8916 4.69323 51.6924 3.29632 51.8984Z" fill="#B79992"/>
<path d="M8.82419 57.528C8.42036 57.7072 6.83806 59.8444 5.63314 61.8225C4.6732 63.3958 5.23593 64.4909 6.49381 63.4887C7.20218 62.9245 9.75105 59.0547 9.88345 58.351C9.99599 57.747 9.38693 57.2757 8.82419 57.528Z" fill="#B79992"/>
<path d="M16.9474 59.2395C15.9212 59.7375 16.8282 63.6207 18.0331 63.8463C18.7481 63.9792 19.0858 63.1162 18.7878 61.948C18.1721 59.5185 17.7286 58.8679 16.9474 59.2395Z" fill="#B79992"/>
</g>
<defs>
<clipPath id="clip0_15_278">
<rect width="88" height="64" fill="white"/>
</clipPath>
</defs>
</svg>
